<?xml version="1.0" encoding="UTF-8" standalone="no"?>
<!DOCTYPE svg  PUBLIC '-//W3C//DTD SVG 1.1//EN'  'http://www.w3.org/Graphics/SVG/1.1/DTD/svg11.dtd'>
<svg xmlns="http://www.w3.org/2000/svg" version="1.1">
<defs>
<font id="AllianzSans-BoldItalic" horiz-adv-x="1100">
<font-face cap-height="1440" descent="-471" font-style="italic" font-family="Allianz Sans" underline-position="-307" unicode-range="U+0020-F6CE" bbox="-260 -471 2023 2013" x-height="1073" slope="-11" underline-thickness="102" font-weight="700" ascent="1577" units-per-em="2048" panose-1="2 0 8 3 5 0 0 9 0 4"/>
<missing-glyph/>
<glyph glyph-name="space" unicode=" " horiz-adv-x="410"/>
<glyph glyph-name="exclam" unicode="!" horiz-adv-x="561" d="M373 406h-244l147 997l275 37zM373 156q0 -36 -11.5 -67t-33 -54t-52.5 -36t-69 -13q-66 0 -106 39.5t-40 111.5q0 37 11.5 68.5t32.5 54.5t52 36t70 13q31 0 57.5 -10.5t46 -30.5t31 -48.5t11.5 -63.5z"/>
<glyph glyph-name="quotedbl" unicode='&quot;' horiz-adv-x="668" d="M592 997h-148l43 443h201zM291 997h-148l43 443h201z"/>
<glyph glyph-name="numbersign" unicode="#" horiz-adv-x="1204" d="M1153 907h-217l-72 -379h215l-24 -141h-219l-72 -387h-164l72 387h-307l-72 -387h-164l72 387h-219l28 141h215l72 379h-215l22 142h220l73 391h164l-74 -391h310l71 391h166l-73 -391h217zM463 907l-72 -379h307l72 379h-307z"/>
<glyph glyph-name="dollar" unicode="$" d="M1008 1108q-26 35 -67 62q-35 23 -92 43t-140 20q-56 0 -94 -12.5t-61 -33.5t-32.5 -49t-9.5 -59q0 -27 6 -49t19.5 -42.5t34.5 -41t51 -45.5l110 -92q66 -54 107 -100t64.5 -92t31.5 -96t8 -113q0 -53 -15.5 -117t-56.5 -124.5t-113.5 -108.5t-187.5 -68l-34 -207h-226 l33 199q-79 6 -133 21t-88 32q-40 18 -64 41l31 264q23 -39 66 -69q37 -26 100 -47t160 -21q64 0 109 16t73 42.5t40.5 61t12.5 72.5q0 27 -4.5 49t-16.5 43t-33.5 43t-55.5 50l-121 96q-56 44 -94 85t-62 84t-34.5 90.5t-10.5 104.5q0 62 18 128.5t60.5 124t113.5 100 t177 57.5l33 190l229 31l-37 -221q65 -9 109 -24t73 -29q33 -17 54 -35z"/>
<glyph glyph-name="percent" unicode="%" horiz-adv-x="1536" d="M797 1147q0 -78 -25.5 -146.5t-73 -118.5t-114 -79t-148.5 -29q-78 0 -138 24t-101 66.5t-62.5 100.5t-21.5 127q0 82 26.5 149t75 115t116 74t148.5 26q74 0 133 -22.5t100 -63.5t63 -98t22 -125zM270 0h-229l1288 1446h227zM1497 350q0 -78 -25.5 -146.5t-72.5 -118.5 t-113.5 -79t-148.5 -29q-78 0 -138 24t-101.5 66.5t-63 101t-21.5 126.5q0 82 27 149t75.5 115t116 74t148.5 26q73 0 132 -22.5t100 -63.5t63 -98t22 -125zM602 1126q0 36 -7.5 69.5t-23.5 58.5t-42.5 40t-63.5 15q-42 0 -72 -17t-49 -45.5t-28 -66.5t-9 -80 q0 -35 6.5 -66.5t22 -55.5t41.5 -38t65 -14q41 0 71 16.5t50 44t29.5 63.5t9.5 76zM1303 330q0 36 -7.5 69t-24 58t-42.5 40t-64 15q-42 0 -72 -17t-48.5 -45.5t-27.5 -66.5t-9 -80q0 -35 6.5 -66.5t22 -55.5t41.5 -38t65 -14q40 0 70.5 16.5t50 44t29.5 64t10 76.5z"/>
<glyph glyph-name="ampersand" unicode="&amp;" horiz-adv-x="1251" d="M1214 702q-2 -94 -21.5 -169t-49 -133.5t-64.5 -102t-69 -74.5l145 -223h-317l-39 59q-33 -22 -83 -40q-43 -15 -108.5 -27t-156.5 -12q-125 0 -207.5 34t-131 89.5t-68 125t-19.5 140.5q0 66 13 119.5t35 95t49.5 72.5t56.5 54q68 53 155 76l-23 35q-11 17 -27 43 t-31.5 62t-26.5 82t-11 104q0 31 5 69t20 76.5t42 75.5t70.5 65.5t106 46t149.5 17.5q85 0 152.5 -21.5t114.5 -62.5t72.5 -102t25.5 -139q0 -62 -13 -111.5t-34.5 -89t-48.5 -69t-55 -51.5q-66 -51 -150 -75l231 -354q20 25 37 67q14 36 25.5 94t11.5 144v10h237v0z M727 1139q0 66 -31.5 102.5t-93.5 36.5q-15 0 -38 -3.5t-44.5 -18t-37 -44.5t-15.5 -82q0 -29 8.5 -56t20.5 -51t25 -44t22 -35l39 -59q40 18 72 52q27 29 50 78t23 124zM428 639q-34 -15 -60 -44q-23 -25 -41 -67t-18 -108q0 -54 16 -98.5t45 -76t69.5 -48.5t88.5 -17 q42 0 74 5.5t53 12.5q25 8 43 19z"/>
<glyph glyph-name="quotesingle" unicode="&apos;" horiz-adv-x="367" d="M291 997h-148l43 443h201z"/>
<glyph glyph-name="parenleft" unicode="(" horiz-adv-x="840" d="M952 1577q-140 -118 -250 -251.5t-185.5 -283t-115 -313.5t-39.5 -344q0 -127 20.5 -244t58 -224t91 -204t119.5 -184h-262q-25 29 -46.5 61t-41.5 64q-102 162 -150.5 347t-48.5 378q0 334 125 613.5t359 506.5q23 22 43.5 40t46.5 38h276v0z"/>
<glyph glyph-name="parenright" unicode=")" horiz-adv-x="840" d="M737 727q0 -335 -125 -614t-358 -506q-23 -22 -43.5 -40t-46.5 -38h-277q141 118 250.5 251.5t185 283t115 313.5t39.5 344q0 127 -20.5 244t-58 224t-91 204t-119.5 184h263q24 -29 46 -61t42 -64q102 -162 150 -347t48 -378z"/>
<glyph glyph-name="asterisk" unicode="*" horiz-adv-x="778" d="M559 1133l244 -109l-109 -152l-184 170v-268h-193l93 277l-244 -179l-64 152l285 109l-248 104l113 149l186 -169v282h193l-96 -282l245 169l60 -149z"/>
<glyph glyph-name="plus" unicode="+" horiz-adv-x="1311" d="M768 637v-553h-186v553h-514v176h514v533h186v-533h516v-176h-516z"/>
<glyph glyph-name="comma" unicode="," horiz-adv-x="508" d="M373 289q-4 -98 -29.5 -189t-63 -170.5t-81.5 -145t-84 -112.5l-176 82q27 50 51 104.5t43 119t33 141t22 170.5h285v0z"/>
<glyph glyph-name="hyphen" unicode="-" horiz-adv-x="664" d="M561 424h-498l39 246h498z"/>
<glyph glyph-name="period" unicode="." horiz-adv-x="492" d="M362 162q0 -38 -12.5 -72t-35.5 -59.5t-56 -40.5t-74 -15q-72 0 -114.5 43.5t-42.5 124.5q0 39 12 73t35 59t56 39t75 14q33 0 61.5 -11t50 -32t33.5 -52t12 -71z"/>
<glyph glyph-name="slash" unicode="/" horiz-adv-x="786" d="M158 -362h-260l686 1939h264z"/>
<glyph glyph-name="zero" unicode="0" d="M1092 995q0 -112 -10.5 -215.5t-28.5 -194.5t-42.5 -167t-52.5 -133q-48 -98 -103.5 -158t-115 -93.5t-120 -45t-119.5 -11.5q-79 0 -156 19.5t-138 71t-98.5 142t-37.5 232.5q0 112 10 215.5t28 194.5t42 167t53 134q48 97 103.5 157.5t115 93.5t120.5 44.5t120 11.5 q79 0 156 -19.5t138 -71t98.5 -142t37.5 -232.5zM811 948q0 64 -4 118.5t-20.5 94.5t-50.5 63t-93 23q-75 0 -122 -51t-79 -141q-19 -54 -36 -128t-29.5 -152t-19.5 -153.5t-7 -132.5q0 -64 4 -118.5t20.5 -94.5t50.5 -63t93 -23q75 0 122 52t79 141q19 54 36 127.5 t29.5 152t19.5 153.5t7 132z"/>
<glyph glyph-name="one" unicode="1" d="M655 0h-280l180 1130l-309 -51l35 219q46 7 102.5 21.5t114 34t109.5 42.5t89 46h189z"/>
<glyph glyph-name="two" unicode="2" d="M1053 1069q0 -118 -33.5 -210t-87 -165.5t-121.5 -132.5t-137 -112q-68 -53 -124 -93.5t-98 -68.5q-48 -33 -87 -56h559l-37 -231h-873l41 256q69 47 144 102q64 47 141.5 106.5t155.5 125.5q51 44 98.5 88.5t85 96t60 112.5t22.5 137q0 32 -9 69t-34.5 68t-71 51.5 t-119.5 20.5q-79 0 -138.5 -20.5t-101.5 -44.5q-48 -28 -83 -64l41 260q33 26 87 47q46 17 118 32t176 15q42 0 90 -6.5t95 -23t91 -44.5t77 -71t53 -103.5t20 -140.5z"/>
<glyph glyph-name="three" unicode="3" d="M1053 1122q0 -63 -13 -113t-34.5 -89t-49 -67t-55.5 -48q-67 -47 -151 -64q68 -11 122 -49q23 -16 45 -39.5t39.5 -55.5t28 -74.5t10.5 -96.5q0 -36 -5.5 -83t-25 -97.5t-56.5 -99t-99 -86.5t-153.5 -61.5t-219.5 -23.5q-97 0 -170 15.5t-122 34.5q-58 22 -99 51l27 262 q38 -39 90 -69q45 -26 110.5 -47t153.5 -21q85 0 140 19t87.5 51.5t45 76t12.5 92.5q0 62 -22 100t-59.5 58.5t-88 27.5t-107.5 7h-43l31 203h39q60 0 114 9t95.5 33.5t65.5 68.5t24 114q0 36 -9.5 67.5t-32.5 54.5t-61 36.5t-96 13.5q-68 0 -123 -18.5t-94 -40.5 q-46 -26 -82 -58l41 264q35 21 85 39q43 14 107 26.5t152 12.5q79 0 152.5 -17.5t129.5 -57.5t90 -104t34 -157z"/>
<glyph glyph-name="four" unicode="4" d="M946 543h137l-34 -232h-138l-49 -311h-270l49 311h-629l41 262l711 869h323zM770 1145q-11 -17 -26 -39q-13 -19 -33 -46.5t-47 -62.5l-228 -288q-18 -23 -43.5 -51.5t-48.5 -54.5q-27 -30 -57 -60h389l94 602v0z"/>
<glyph glyph-name="five" unicode="5" d="M1051 1208h-537l-47 -301q13 3 31 6q16 2 39 4.5t55 2.5q29 0 69 -4.5t83 -19.5t85.5 -43t76 -74.5t54.5 -114t21 -162.5q0 -133 -39 -232t-109.5 -164.5t-169 -98t-217.5 -32.5q-91 0 -160.5 15.5t-118.5 34.5q-57 22 -99 51l26 260q35 -38 83 -68q42 -26 103 -46.5 t144 -20.5q81 0 133.5 25t83 65.5t43 91.5t12.5 104q0 64 -19 108.5t-52.5 73t-79.5 41.5t-101 13q-54 0 -98.5 -9t-78.5 -20q-40 -12 -72 -28l122 774h770z"/>
<glyph glyph-name="six" unicode="6" d="M1112 1102q-28 37 -73 67q-38 26 -98.5 47t-145.5 21q-95 0 -158.5 -28.5t-104.5 -79t-64.5 -119t-39.5 -148.5q27 20 61 37q29 14 71.5 25.5t96.5 11.5q80 0 140 -19t103.5 -50.5t71.5 -73.5t45 -87t23.5 -90.5t6.5 -85.5q0 -45 -5.5 -103t-24 -119.5t-52 -120t-90 -105 t-139 -74.5t-197.5 -28q-89 0 -157 18.5t-117.5 51t-83 76.5t-53 95.5t-28 108.5t-8.5 114q0 71 5.5 154.5t18.5 169.5t35 171t56 159q38 84 87 151.5t117 114t159 71.5t214 25q94 0 160.5 -15t111.5 -32q52 -21 87 -47zM766 500q0 42 -7.5 80t-27.5 66.5t-55 45.5t-90 17 q-52 0 -88.5 -12t-60.5 -26q-28 -17 -46 -38q-6 -31 -10 -64q-4 -29 -7 -66t-3 -77q0 -52 6.5 -95.5t26 -74.5t55 -48.5t92.5 -17.5q44 0 83 14.5t68.5 50.5t46.5 95.5t17 149.5z"/>
<glyph glyph-name="seven" unicode="7" d="M1110 1298q-11 -78 -46.5 -166t-105.5 -188l-210 -301q-55 -78 -93 -140t-64 -123t-42 -128t-27 -154l-12 -98h-279l15 100q9 64 18 117t21.5 100.5t29.5 93t42.5 95t61.5 106.5t85 127l133 191q45 65 73 109.5t44 75t22.5 52t9.5 41.5h-616l37 232h923z"/>
<glyph glyph-name="eight" unicode="8" d="M1083 1110q0 -54 -12.5 -98t-33 -79t-46.5 -62t-53 -46q-64 -46 -145 -69l30 -21q38 -25 72 -57.5t60 -75t41.5 -97t15.5 -124.5q0 -94 -26 -161t-68.5 -112t-96.5 -71.5t-109.5 -40t-108 -17.5t-91.5 -4q-98 0 -170 16t-123.5 43.5t-84 64.5t-51 78.5t-25.5 85.5t-7 87 q0 62 14 111.5t37 89t52.5 69t60.5 51.5q72 50 164 74l-21 15q-47 33 -78.5 68.5t-51 75t-27.5 85t-8 98.5q0 89 25.5 151.5t66 103.5t91.5 64.5t102.5 35t98 14t78.5 2.5q91 0 158.5 -15.5t115 -42.5t77.5 -62t47 -73.5t23.5 -78.5t6.5 -76zM836 1096q0 51 -13.5 85.5 t-37.5 56t-58 31t-76 9.5q-32 0 -67 -5.5t-63.5 -23.5t-47 -51.5t-18.5 -89.5t23.5 -102t80.5 -86l86 -60q53 20 95 53q18 14 35 32t30.5 40.5t22 50t8.5 60.5zM741 367q0 33 -5.5 61.5t-19 54.5t-35.5 49t-56 46l-95 63q-61 -17 -109 -52q-20 -15 -39.5 -35.5t-34.5 -47 t-24.5 -59.5t-9.5 -74q0 -102 54.5 -151.5t156.5 -49.5q68 0 110.5 19.5t66 48.5t32 63.5t8.5 63.5z"/>
<glyph glyph-name="nine" unicode="9" d="M1071 995q0 -71 -5 -154t-18 -169t-35.5 -171t-56.5 -159q-38 -84 -87 -151.5t-117 -114t-159 -71.5t-214 -25q-94 0 -161 14.5t-112 32.5q-52 20 -86 47l31 264q28 -38 73 -68q38 -26 98.5 -46.5t146.5 -20.5q95 0 158 28.5t104 79t64.5 119t39.5 148.5q-27 -21 -61 -37 q-29 -14 -71.5 -25.5t-96.5 -11.5q-80 0 -140 19t-103 50.5t-71.5 73t-45 86.5t-23 90.5t-6.5 85.5q0 45 5.5 103.5t23.5 120t52 120t90.5 105t139 74.5t197.5 28q89 0 156.5 -18.5t117 -51t83 -77t53 -96t28 -108.5t8.5 -114zM793 1014q0 52 -7 95.5t-26.5 74.5t-55 48 t-92.5 17q-44 0 -83 -14.5t-68 -50t-46.5 -95t-17.5 -149.5q0 -42 7.5 -80t27.5 -66.5t55 -45.5t91 -17q51 0 88 12t60 26q27 17 46 38q6 30 10 63q4 29 7.5 66t3.5 78z"/>
<glyph glyph-name="colon" unicode=":" horiz-adv-x="516" d="M489 997q0 -38 -12.5 -71.5t-35.5 -59t-56 -40.5t-74 -15q-72 0 -114.5 43t-42.5 125q0 39 12 72.5t35 58.5t56 39t75 14q33 0 61.5 -11t50 -32t33.5 -52t12 -71zM362 162q0 -38 -12.5 -72t-35.5 -59.5t-56 -40.5t-74 -15q-72 0 -114.5 43.5t-42.5 124.5q0 39 12 73 t35 59t56 39t75 14q33 0 61.5 -11t50 -32t33.5 -52t12 -71z"/>
<glyph glyph-name="semicolon" unicode=";" horiz-adv-x="510" d="M483 997q0 -38 -12.5 -71.5t-35.5 -59t-56 -40.5t-74 -15q-72 0 -115 43t-43 125q0 39 12.5 72.5t35.5 58.5t56 39t75 14q33 0 61.5 -11t50 -32t33.5 -52t12 -71zM373 289q-4 -98 -29.5 -189t-63 -170.5t-81.5 -145t-84 -112.5l-176 82q27 50 51 104.5t43 119t33 141 t22 170.5h285v0z"/>
<glyph glyph-name="less" unicode="&lt;" horiz-adv-x="1456" d="M68 664v108l1362 602v-192l-1074 -461l1074 -459v-199z"/>
<glyph glyph-name="equal" unicode="=" horiz-adv-x="1311" d="M68 887v178h1216v-178h-1216zM68 375v178h1216v-178h-1216z"/>
<glyph glyph-name="greater" unicode="&gt;" horiz-adv-x="1456" d="M68 63v199l1073 459l-1073 461v192l1362 -602v-108z"/>
<glyph glyph-name="question" unicode="?" horiz-adv-x="885" d="M926 1139q0 -56 -12 -106.5t-38 -98.5t-67.5 -94.5t-101.5 -94.5l-138 -110q-30 -24 -48.5 -43.5t-30 -39.5t-18 -43.5t-11.5 -55.5l-8 -47h-252l12 75q5 35 13.5 67t22.5 61.5t35 57.5t52 56l143 127q36 31 66 58.5t52 56t34 61t12 74.5q0 72 -47 106.5t-135 34.5 q-70 0 -127.5 -21t-99.5 -47q-49 -30 -89 -67l41 254q43 27 98 49q48 18 115 33.5t154 15.5q98 0 168.5 -23.5t116 -66t67 -101t21.5 -128.5zM457 156q0 -36 -11.5 -67t-33 -54t-52.5 -36t-69 -13q-66 0 -106 39.5t-40 111.5q0 37 11.5 68.5t32.5 54.5t52 36t70 13 q31 0 57.5 -10.5t46 -30.5t31 -48.5t11.5 -63.5z"/>
<glyph glyph-name="at" unicode="@" horiz-adv-x="1968" d="M1907 682q0 -95 -18 -184.5t-57 -167.5t-100 -142.5t-147 -109.5q-37 -20 -78 -34t-82.5 -23.5t-79.5 -14.5t-69 -6q-28 -2 -58 -3t-59 -1t-58 1t-57 3l39 236q-2 -4 -8.5 -19t-18.5 -36.5t-31 -47.5t-44 -51q-30 -30 -57 -49.5t-54 -30.5t-55 -15.5t-59 -4.5 q-128 0 -193 93t-65 285q0 88 11 175t35 166t63 147t94 118t128 78.5t166 28.5q56 0 95.5 -11t65.5 -24q30 -15 50 -34l260 69l-145 -919q28 5 69 17t85 38q102 62 153 173.5t51 283.5q0 283 -152.5 430t-461.5 147q-72 0 -155.5 -14.5t-166.5 -50t-160.5 -94t-137 -145.5 t-95 -206.5t-35.5 -275.5q0 -171 47 -301.5t139 -219t227 -133.5t312 -45q121 0 219 19.5t168 42.5q82 27 146 63l-12 -225q-60 -29 -140 -51q-69 -20 -166.5 -35.5t-222.5 -15.5q-242 0 -420.5 65t-296.5 183.5t-175.5 285t-57.5 369.5q0 143 32 271t93 236.5t148 195 t197 147t241 93t280 32.5q177 0 329 -48t264.5 -142.5t176.5 -235t64 -326.5zM1171 840q-15 11 -34 21q-17 8 -40.5 15t-54.5 7q-68 0 -114 -27t-78 -74q-26 -38 -44 -86t-28.5 -99.5t-15 -101.5t-4.5 -92q0 -63 12 -101t29.5 -58.5t38.5 -27.5t39 -7t34 4t32.5 14.5 t35 28.5t39.5 45q19 24 36.5 54t31 61.5t23 61t13.5 52.5l49 310v0z"/>
<glyph glyph-name="A" unicode="A" horiz-adv-x="1182" d="M825 0l-47 432h-428l-182 -432h-274l657 1442h379l184 -1442h-289zM707 1098q-5 35 -7 65.5t-3 54.5q-1 27 -1 52q-6 -23 -16 -49q-8 -23 -20 -54t-27 -67l-193 -457h316z"/>
<glyph glyph-name="B" unicode="B" horiz-adv-x="1139" d="M1110 1116q0 -68 -14.5 -120t-38 -91.5t-53.5 -67t-61 -46.5q-74 -44 -167 -54q76 -8 137 -44q26 -15 50.5 -38t44 -55.5t31.5 -75.5t12 -98q0 -85 -22 -147.5t-55 -107t-71.5 -72.5t-71.5 -44q-71 -35 -168 -45t-219 -10h-397l227 1440h365q71 0 124 -3t93.5 -10.5 t71.5 -20t59 -30.5q62 -40 92.5 -108t30.5 -152zM815 1079q0 48 -13.5 78.5t-37.5 48t-57 24.5t-72 7h-115l-63 -401h84q28 0 58.5 2t61 10t58.5 23.5t49.5 42.5t34 67.5t12.5 97.5zM766 449q0 55 -14.5 90.5t-42.5 56.5t-67.5 29t-90.5 8h-125l-68 -430h138q20 0 48 1.5 t58 9t59.5 22.5t52.5 42.5t37.5 69t14.5 101.5z"/>
<glyph glyph-name="C" unicode="C" horiz-adv-x="1128" d="M1151 1114q-27 33 -72 59q-38 23 -100.5 41.5t-153.5 18.5q-93 0 -162 -30t-117.5 -80t-79 -115t-47.5 -136t-23.5 -142.5t-6.5 -133.5q0 -66 10 -135.5t44.5 -127t100.5 -94t177 -36.5q77 0 136 18.5t101 41.5q48 26 84 61l-53 -261q-37 -25 -88 -43q-44 -17 -109 -30 t-153 -13q-151 0 -254 45t-166 124t-90 187t-27 234q0 99 13 188.5t35.5 168.5t54 146.5t69.5 121.5q61 87 130 139.5t140.5 80.5t142.5 37t136 9q94 0 162.5 -16t114.5 -36q53 -23 90 -52z"/>
<glyph glyph-name="D" unicode="D" horiz-adv-x="1311" d="M1270 879q0 -111 -16 -213.5t-47.5 -192t-79 -164.5t-111.5 -131q-68 -60 -139 -95.5t-150 -53.5t-168 -23.5t-192 -5.5h-320l227 1440h318q108 0 189 -6.5t142.5 -23t108.5 -43.5t88 -69q75 -75 112.5 -178.5t37.5 -240.5zM987 856q0 116 -27 192.5t-86 118.5 q-35 25 -89 36t-142 11h-123l-158 -989h162q93 0 163.5 26.5t122 72.5t85.5 107.5t54.5 131.5t29 145t8.5 148z"/>
<glyph glyph-name="E" unicode="E" horiz-adv-x="938" d="M963 1208h-445l-57 -362h362l-37 -232h-362l-62 -387h482l-47 -227h-750l227 1440h725z"/>
<glyph glyph-name="F" unicode="F" horiz-adv-x="897" d="M963 1208h-445l-57 -362h362l-37 -232h-362l-96 -614h-281l227 1440h725z"/>
<glyph glyph-name="G" unicode="G" horiz-adv-x="1262" d="M1233 1114q-31 33 -81 59q-43 23 -112.5 41.5t-169.5 18.5q-110 0 -188.5 -31.5t-132 -83.5t-85 -118.5t-48.5 -137.5t-22 -140t-5 -126q0 -38 4 -83t15.5 -89.5t33 -86t56.5 -73t86 -50.5t121 -19q31 0 51 1t32 3q14 2 21 4l70 434h278l-90 -576q-43 -24 -100 -42 q-49 -16 -118.5 -29t-158.5 -13q-166 0 -278.5 46t-181.5 125.5t-98.5 187.5t-29.5 231q0 199 48 357.5t129 267.5q64 87 138 139t151.5 80.5t155 37.5t148.5 9q103 0 178 -16t124 -36q57 -23 96 -52z"/>
<glyph glyph-name="H" unicode="H" horiz-adv-x="1276" d="M1063 0h-281l97 610h-455l-96 -610h-281l227 1440h281l-92 -594h455l92 594h280z"/>
<glyph glyph-name="I" unicode="I" horiz-adv-x="541" d="M328 0h-281l227 1440h281z"/>
<glyph glyph-name="J" unicode="J" horiz-adv-x="709" d="M557 315q-6 -36 -14.5 -71.5t-22.5 -68.5t-35.5 -64t-52.5 -58q-79 -67 -242 -67q-30 0 -59.5 3t-57.5 8.5t-51.5 13t-41.5 16.5l36 235q29 -20 66.5 -31.5t69.5 -11.5q58 0 90 28.5t43 94.5l178 1098h276z"/>
<glyph glyph-name="K" unicode="K" horiz-adv-x="1139" d="M721 750l346 -750h-307l-320 723l-114 -723h-279l227 1440h279l-104 -670l548 670h303z"/>
<glyph glyph-name="L" unicode="L" horiz-adv-x="895" d="M776 0h-729l227 1440h277l-189 -1213h461z"/>
<glyph glyph-name="M" unicode="M" horiz-adv-x="1657" d="M1444 0h-264l194 1231q-14 -49 -32 -105q-16 -48 -38 -110t-51 -129l-376 -887h-291l-94 879q-3 21 -4.5 47.5t-3 55t-2.5 58.5t-2 58q-2 65 -3 135l-194 -1233h-236l227 1440h420l92 -860q5 -45 6.5 -94.5t2.5 -91.5q1 -49 0 -97q10 41 23 88q11 40 28.5 91.5 t40.5 105.5l364 858h420z"/>
<glyph glyph-name="N" unicode="N" horiz-adv-x="1317" d="M1102 0h-297l-273 748q-23 62 -36.5 115.5t-21.5 92.5q-9 46 -13 84l-168 -1040h-248l231 1440h308l243 -717q20 -59 36.5 -120t27.5 -112q13 -59 24 -114l170 1063h248z"/>
<glyph glyph-name="O" unicode="O" horiz-adv-x="1327" d="M1286 868q0 -17 -1.5 -64t-10 -113t-26 -144.5t-49 -158t-80 -154t-118.5 -132t-164.5 -92.5t-218.5 -35q-119 0 -203.5 30t-141.5 79.5t-91 112t-52 128t-23 128.5t-5 112q0 16 1.5 63.5t10 113.5t26 144.5t49.5 158t80 154t118.5 132t164.5 92.5t218 35 q119 0 203.5 -30t141.5 -79t91 -112t52 -128.5t23 -128.5t5 -112zM999 877q0 115 -21.5 185.5t-56 108.5t-78.5 51t-89 13q-36 0 -67.5 -6t-60 -20.5t-54 -38t-50.5 -58.5q-32 -46 -57 -109t-42 -135.5t-25.5 -152t-8.5 -158.5q0 -115 21.5 -185.5t56 -108.5t79 -51 t89.5 -13q72 0 127 26t104 97q32 46 57 108.5t42 135.5t25.5 152.5t8.5 158.5z"/>
<glyph glyph-name="P" unicode="P" horiz-adv-x="1120" d="M1141 1067q-1 -155 -48.5 -259t-127 -166.5t-184.5 -89t-220 -26.5h-151l-84 -526h-279l229 1440h390q63 0 114 -4t93 -13t75.5 -23t61.5 -34q27 -19 50.5 -45t41.5 -62t28.5 -83.5t10.5 -108.5zM852 1044q0 67 -18 105.5t-48 58t-68.5 24.5t-80.5 5h-117l-80 -504h117 q57 0 110 14t94.5 49.5t66 95.5t24.5 152z"/>
<glyph glyph-name="Q" unicode="Q" horiz-adv-x="1327" d="M1286 868q0 -27 -2.5 -76t-10.5 -111.5t-24.5 -134.5t-44 -144t-68.5 -141t-99.5 -125.5t-136 -96.5t-177.5 -55q28 -47 80.5 -75t146.5 -28q76 0 130 14.5t89 32.5q40 20 66 47l-31 -225q-29 -20 -74 -35q-38 -13 -99 -23.5t-148 -10.5q-176 0 -286 76t-153 239 q-78 21 -133.5 59.5t-93.5 87.5t-60.5 105t-35 112.5t-16 109t-3.5 95.5q0 16 1.5 63.5t10 113.5t26 144.5t49.5 158t80 154t118.5 132t164.5 92.5t218 35q119 0 203.5 -30t141.5 -79t91 -112t52 -128.5t23 -128.5t5 -112zM999 877q0 115 -21.5 185.5t-56 108.5t-78.5 51 t-89 13q-36 0 -67.5 -6t-60 -20.5t-54 -38t-50.5 -58.5q-32 -46 -57 -109t-42 -135.5t-25.5 -152t-8.5 -158.5q0 -115 21.5 -185.5t56 -108.5t79 -51t89.5 -13q72 0 127 26t104 97q32 46 57 108.5t42 135.5t25.5 152.5t8.5 158.5z"/>
<glyph glyph-name="R" unicode="R" horiz-adv-x="1120" d="M1120 1083q0 -99 -23.5 -170t-61 -120t-83 -79t-89.5 -46t-81 -21.5t-57 -5.5l340 -641h-313l-322 653l-104 -653h-279l227 1440h373q74 0 126 -2.5t90 -9.5t66.5 -18t55.5 -28q38 -24 64 -56.5t41.5 -71.5t22.5 -82.5t7 -88.5zM831 1061q0 63 -18 98.5t-46 52.5t-61 21 t-63 4h-123l-67 -434h114q40 0 86.5 7t86 33.5t65.5 77.5t26 140z"/>
<glyph glyph-name="S" unicode="S" horiz-adv-x="942" d="M938 1108q-26 35 -67 62q-35 23 -92 43t-140 20q-56 0 -94 -12.5t-61 -33.5t-32.5 -49t-9.5 -59q0 -27 6 -49t19.5 -42.5t34.5 -41t51 -45.5l111 -92q66 -54 107 -100t64 -92t31 -96t8 -113q0 -39 -8.5 -86.5t-30 -95.5t-59 -93t-95 -79.5t-138 -55.5t-187.5 -21 q-106 0 -176 15t-112 34q-50 22 -78 50l30 264q23 -39 66 -69q37 -26 100 -47t160 -21q64 0 109 16t73.5 42.5t41 61t12.5 72.5q0 27 -4.5 49t-16.5 43t-34 43t-56 50l-121 96q-55 44 -93 85t-62 84t-34.5 90.5t-10.5 104.5q0 70 22.5 144t77.5 135t146 100t229 39 q99 0 166 -15t109 -33q49 -21 79 -48z"/>
<glyph glyph-name="T" unicode="T" horiz-adv-x="1067" d="M1143 1208h-361l-192 -1208h-281l193 1208h-379l37 232h1030z"/>
<glyph glyph-name="U" unicode="U" horiz-adv-x="1253" d="M1145 526q-12 -77 -24.5 -140.5t-30.5 -117t-44.5 -97.5t-66.5 -81q-38 -34 -80 -56t-91 -35t-104 -18.5t-118 -5.5q-115 0 -195.5 20t-134 52.5t-84 73t-46 80.5t-19 75.5t-3.5 59.5q0 43 4 86.5t13 103.5l143 914h281l-150 -951q-5 -29 -7.5 -58t-2.5 -52 q0 -60 21.5 -96t53.5 -55t70.5 -25t73.5 -6q75 0 121.5 18t74.5 53t42.5 87.5t25.5 121.5l152 963h268z"/>
<glyph glyph-name="V" unicode="V" horiz-adv-x="1184" d="M631 -8h-301l-228 1448h293l113 -846q11 -81 15.5 -145t6.5 -109q2 -53 0 -94q9 33 25 77q13 38 34 91.5t52 122.5l403 903h283z"/>
<glyph glyph-name="W" unicode="W" horiz-adv-x="1911" d="M1395 -8h-305l-74 827q-4 45 -5.5 87.5t-2.5 75.5q-1 39 0 73q-5 -22 -15 -53q-8 -26 -21 -64.5t-32 -89.5l-330 -856h-315l-172 1448h287l86 -865q6 -62 8.5 -116.5t3.5 -96.5q1 -48 0 -90q11 47 25 98q12 44 29 97.5t38 107.5l334 865h287l73 -813q7 -80 10.5 -145 t4.5 -112q1 -55 0 -98q13 53 30 112q14 50 34 112t46 125l332 819h272z"/>
<glyph glyph-name="X" unicode="X" horiz-adv-x="1208" d="M799 727l354 -727h-303l-256 516l-377 -516h-297l561 741l-346 699h318l237 -488l354 488h295z"/>
<glyph glyph-name="Y" unicode="Y" horiz-adv-x="1159" d="M696 541l-86 -541h-274l88 549l-322 891h291l209 -637l420 637h301z"/>
<glyph glyph-name="Z" unicode="Z" horiz-adv-x="1143" d="M1190 1233l-842 -1002h676l-49 -231h-995l34 209l822 999h-607l37 232h959z"/>
<glyph glyph-name="bracketleft" unicode="[" horiz-adv-x="786" d="M756 1393h-156l-262 -1680h156l-31 -184h-416l324 2048h415z"/>
<glyph glyph-name="backslash" unicode="\" horiz-adv-x="887" d="M535 -362l-351 1939h262l349 -1939h-260z"/>
<glyph glyph-name="bracketright" unicode="]" horiz-adv-x="786" d="M416 -471h-416l31 184h155l263 1680h-156l31 184h415z"/>
<glyph glyph-name="asciicircum" unicode="^" horiz-adv-x="1141" d="M838 479l-271 725l-266 -725h-219l428 1073h123l426 -1073h-221z"/>
<glyph glyph-name="underscore" unicode="_" horiz-adv-x="1024" d="M0 -242v80h1024v-80h-1024z"/>
<glyph glyph-name="grave" unicode="`" horiz-adv-x="1024" d="M662 1194l-406 231l106 177l381 -277z"/>
<glyph glyph-name="a" unicode="a" d="M883 0h-269l39 238q-10 -26 -25 -52q-13 -23 -32 -50.5t-45 -53.5q-30 -30 -57 -49.5t-54 -30.5t-55 -15.5t-59 -4.5q-128 0 -193 93t-65 285q0 88 11 176t35 169t63 151.5t94 122.5t128 81.5t166 29.5q56 0 95.5 -11t65.5 -24q30 -16 50 -35l8 53h269zM741 840 q-11 11 -28 21q-14 8 -36.5 15t-53.5 7q-68 0 -112.5 -27.5t-76.5 -73.5q-26 -38 -43.5 -86t-28.5 -99.5t-15.5 -101.5t-4.5 -92q0 -61 10 -97.5t25.5 -55.5t34.5 -25t37 -6t34 4.5t32.5 15t34.5 28t40 44.5q19 24 36.5 54t31 61.5t23 61.5t13.5 53l47 299v0z"/>
<glyph glyph-name="b" unicode="b" horiz-adv-x="1106" d="M1040 713q0 -75 -9 -158.5t-31 -164.5t-58.5 -154.5t-92.5 -129.5t-132.5 -89t-177.5 -33q-57 0 -99.5 10.5t-70.5 23.5q-33 15 -56 35l-268 -67l246 1554l280 37l-82 -520q-8 -53 -15.5 -93.5t-12.5 -68.5q-6 -33 -12 -57q11 26 26 53q13 23 32.5 50.5t45.5 53.5 q29 30 57 49t55.5 29.5t56 14.5t58.5 4q260 0 260 -379zM766 668q0 37 -4.5 71t-17 59.5t-33.5 40.5t-54 15q-18 0 -34.5 -4t-33.5 -14.5t-36 -29t-43 -46.5q-19 -24 -36 -53t-30.5 -60t-23.5 -62t-14 -59l-48 -293q11 -12 29 -22q15 -8 38.5 -14.5t55.5 -6.5q69 0 115 28 t78 73q40 56 66 153t26 224z"/>
<glyph glyph-name="c" unicode="c" horiz-adv-x="877" d="M856 797q-20 23 -50 41q-26 15 -65 28t-94 13q-54 0 -104 -17t-92 -63q-29 -32 -48.5 -71.5t-32.5 -84.5t-18.5 -94t-5.5 -98q0 -59 11.5 -107t38.5 -82t72.5 -53t113.5 -19q50 0 88.5 12t64.5 27q31 17 53 39l-43 -225q-27 -18 -64 -31q-32 -11 -77.5 -20.5t-105.5 -9.5 q-98 0 -168.5 21.5t-118.5 56.5t-76.5 80.5t-44 93.5t-20 94.5t-4.5 85.5q0 87 13 171.5t40.5 159.5t70.5 138.5t103.5 109t139 71.5t177.5 26q74 0 126.5 -13t87.5 -28q40 -18 67 -41z"/>
<glyph glyph-name="d" unicode="d" horiz-adv-x="1104" d="M891 0h-268l36 236q-11 -26 -26 -53q-13 -23 -32.5 -51t-45.5 -54q-29 -30 -57 -49t-56 -29.5t-56 -14t-58 -3.5q-260 0 -260 378q0 76 9 159t31 164.5t59 155t92.5 129.5t131.5 89t176 33q55 0 94.5 -10.5t65.5 -22.5q30 -15 51 -33l82 516l281 37zM750 840 q-11 11 -29 21q-15 8 -38.5 15t-55.5 7q-69 0 -115 -28t-78 -73q-40 -55 -66 -152.5t-26 -223.5q0 -38 4.5 -72t16.5 -59.5t33.5 -40.5t54.5 -15q18 0 34.5 4t33.5 14.5t36 29t43 46.5q19 24 36 53t30.5 60t23 62t14.5 59l48 293v0z"/>
<glyph glyph-name="e" unicode="e" horiz-adv-x="995" d="M979 817q0 -64 -14 -113.5t-40.5 -88.5t-65 -68t-87.5 -51q-60 -28 -165.5 -45t-237.5 -17h-17q-1 -3 -1 -8q-1 -5 -1 -12v-17q0 -43 9.5 -80.5t35.5 -65.5t71.5 -44.5t117.5 -16.5q67 0 118.5 13.5t86.5 30.5q41 19 71 45l-45 -234q-31 -18 -75 -32q-38 -12 -95 -21.5 t-135 -9.5q-98 0 -169 19.5t-120 52t-79.5 76t-47.5 91t-22.5 96.5t-5.5 93q0 135 32 258t99.5 217t172 149.5t248.5 55.5q82 0 141 -13.5t99 -36t64 -51.5t36.5 -59.5t16.5 -60t4 -52.5zM717 805q0 108 -111 108q-56 0 -101 -25.5t-77 -82.5q-20 -35 -31.5 -68.5 t-17.5 -60.5q-7 -32 -10 -60h14q70 0 131 8t106 29t71 57.5t26 94.5z"/>
<glyph glyph-name="f" unicode="f" horiz-adv-x="561" d="M784 1348q-12 10 -30 18q-15 7 -38 12.5t-52 5.5q-41 0 -69 -11t-46 -36q-9 -12 -16 -24.5t-12.5 -29.5t-10.5 -40t-10 -57l-19 -117h205l-33 -201h-204l-211 -1339h-275l211 1339h-111l33 201h111l18 117q9 51 17.5 92.5t20 75.5t27 62.5t38.5 53.5q26 30 55 50.5 t63.5 33t75.5 18t90 5.5q54 0 91.5 -5.5t62.5 -12.5q28 -8 47 -17z"/>
<glyph glyph-name="g" unicode="g" horiz-adv-x="1108" d="M895 18q-9 -60 -20 -110t-25.5 -92.5t-35 -79t-48.5 -68.5q-60 -69 -151 -104t-226 -35q-101 0 -173 13t-119 29q-55 18 -91 42l37 231q28 -30 68 -53q35 -20 88.5 -36.5t128.5 -16.5q84 0 137.5 23t87.5 63q35 42 51 101t27 124l14 82l7.5 45t6.5 37q4 18 7 35 q-12 -28 -29 -56q-14 -24 -35 -53t-47 -55q-29 -30 -57 -49t-56 -29.5t-56 -14t-58 -3.5q-260 0 -260 377q0 75 9.5 158t31.5 163.5t59 153.5t92.5 128.5t131 88.5t175.5 33q57 0 98 -11t67 -24q31 -16 52 -35l9 53h268zM752 852q-12 8 -30 15q-15 6 -38.5 11t-56.5 5 q-69 0 -115 -28t-78 -73q-40 -55 -66 -150t-26 -222q0 -37 4.5 -70.5t16.5 -59t33.5 -40.5t54.5 -15q18 0 34 4t33.5 14.5t36.5 29t43 46.5q19 24 36 52t30.5 58t23 60t14.5 58l50 305v0z"/>
<glyph glyph-name="h" unicode="h" horiz-adv-x="1128" d="M1047 844q0 -18 -2 -42t-4.5 -50t-6 -51t-6.5 -44l-104 -657h-275l90 569q1 11 4.5 31t6.5 43.5t5.5 48t2.5 45.5q0 44 -17 69t-69 25q-51 0 -92 -27.5t-76 -72.5q-40 -51 -66.5 -108t-34.5 -105l-81 -518h-275l244 1540l280 37l-82 -518q-8 -51 -15.5 -90t-13.5 -68 q-7 -33 -14 -59q15 27 34 56q17 24 41.5 53.5t56.5 56.5q29 24 57 40t56 25.5t57 13t61 3.5q55 0 94 -12t65 -32t42 -45.5t24 -53t10.5 -54.5t2.5 -49z"/>
<glyph glyph-name="i" unicode="i" horiz-adv-x="535" d="M563 1395q0 -26 -7 -53t-26 -49.5t-51 -37t-82 -14.5q-32 0 -59 8t-47 25t-31.5 43t-11.5 61q0 25 7 52.5t26 50t51 37t82 14.5q31 0 58.5 -8t47.5 -25t31.5 -43t11.5 -61zM322 0h-275l170 1073h275z"/>
<glyph glyph-name="j" unicode="j" horiz-adv-x="526" d="M555 1395q0 -26 -7 -53t-26 -49.5t-51 -37t-82 -14.5q-32 0 -59 8t-47 25t-31.5 43t-11.5 61q0 25 7 52.5t25.5 50t51 37t82.5 14.5q31 0 58 -8t47.5 -25t32 -43t11.5 -61zM322 0l-29 -168q-14 -80 -42.5 -137.5t-74.5 -94t-110 -54t-148 -17.5q-54 0 -100 7t-78 20 l35 204q26 -12 52.5 -20t61.5 -8q38 0 62 12t39.5 34.5t24.5 55t16 74.5l188 1165h275z"/>
<glyph glyph-name="k" unicode="k" horiz-adv-x="1016" d="M678 569l254 -569h-295l-229 547l-86 -547h-275l244 1540l280 37l-155 -983l405 479h297z"/>
<glyph glyph-name="l" unicode="l" horiz-adv-x="535" d="M322 0h-275l244 1540l280 37z"/>
<glyph glyph-name="m" unicode="m" horiz-adv-x="1722" d="M1640 846q0 -18 -1.5 -42.5t-4.5 -51t-6 -51.5t-6 -44l-104 -657h-275l90 569q1 11 4.5 31t6.5 43.5t5.5 48t2.5 45.5q0 22 -3.5 39.5t-12.5 29.5t-25.5 18.5t-42.5 6.5q-51 0 -91 -27.5t-75 -72.5q-40 -51 -66.5 -108t-34.5 -105l-81 -518h-275l90 569q1 11 4.5 31 t6.5 43.5t5.5 48t2.5 45.5q0 22 -3.5 39.5t-12.5 29.5t-25.5 18.5t-42.5 6.5q-51 0 -91 -27.5t-75 -72.5q-40 -51 -66.5 -108t-34.5 -105l-81 -518h-275l170 1073h268l-36 -231q13 27 32 56q16 24 40.5 53.5t56.5 56.5q29 24 56.5 40t55.5 25.5t57.5 13t61.5 3.5 q56 0 94.5 -13.5t64.5 -34.5t40.5 -47.5t21.5 -52t8.5 -48t1.5 -36.5q0 -4 -0.5 -8.5t-0.5 -8.5q-1 -5 -1 -10q15 30 35 62q17 27 42.5 58.5t58.5 58.5q29 24 57 40t56 25.5t57 13t61 3.5q55 0 93.5 -12t64.5 -32t41.5 -45.5t23.5 -53t10 -54.5t2 -49z"/>
<glyph glyph-name="n" unicode="n" horiz-adv-x="1128" d="M1047 844q0 -18 -2 -42t-4.5 -50t-6 -51t-6.5 -44l-104 -657h-275l90 569q1 11 4.5 31t6.5 43.5t5.5 48t2.5 45.5q0 44 -17 69t-69 25q-51 0 -92 -27.5t-76 -72.5q-40 -51 -66.5 -108t-34.5 -105l-81 -518h-275l170 1073h268l-36 -231q13 27 32 56q16 24 40.5 53.5 t56.5 56.5q29 24 57 40t56 25.5t57 13t61 3.5q55 0 94 -12t65 -32t42 -45.5t24 -53t10.5 -54.5t2.5 -49z"/>
<glyph glyph-name="o" unicode="o" horiz-adv-x="1065" d="M999 651q0 -28 -2.5 -72t-10.5 -96.5t-23.5 -110t-42 -113.5t-64.5 -106.5t-91.5 -89t-124 -61t-161.5 -22.5q-90 0 -155.5 20.5t-111.5 54.5t-74.5 79t-44.5 94t-21.5 98.5t-5.5 93.5q0 28 2.5 72t11 96.5t24 110.5t41.5 114t64.5 106.5t92 89t124 61t160.5 22.5 t155.5 -20.5t111.5 -55t74.5 -79t44.5 -93.5t21.5 -99t5.5 -94zM719 643q0 61 -7 106.5t-23.5 75.5t-45 45t-70.5 15q-38 0 -72 -15.5t-63 -58.5q-42 -59 -67 -159t-25 -224q0 -61 7 -106.5t23.5 -75.5t45 -45t70.5 -15q38 0 72 15.5t63 58.5q42 59 67 159t25 224z"/>
<glyph glyph-name="p" unicode="p" horiz-adv-x="1106" d="M1040 713q0 -75 -9 -158.5t-31 -164.5t-59 -154.5t-92.5 -129.5t-131.5 -89t-176 -33q-55 0 -94.5 10t-65.5 22q-31 14 -51 33l-82 -520h-275l244 1544h268l-36 -235q11 26 26 53q13 23 32.5 50.5t45.5 53.5q29 30 57 49t55.5 29.5t56 14.5t58.5 4q260 0 260 -379z M766 668q0 37 -4.5 71t-17 59.5t-33.5 40.5t-54 15q-18 0 -34.5 -4t-33.5 -14.5t-36 -29t-43 -46.5q-19 -24 -36 -53t-30.5 -60t-23.5 -62t-14 -59l-48 -293q11 -12 29 -22q15 -8 38.5 -14.5t55.5 -6.5q69 0 115 28t78 73q40 56 66 153t26 224z"/>
<glyph glyph-name="q" unicode="q" horiz-adv-x="1108" d="M817 -471h-270l96 590q6 40 12 74.5t11 54.5q-4 -9 -13 -26.5t-23 -40.5t-32.5 -48t-42.5 -49q-29 -30 -57 -49t-56 -29.5t-56 -14t-58 -3.5q-260 0 -260 377q0 75 9.5 158t31.5 163.5t59 153.5t92.5 128.5t131 88.5t175.5 33q57 0 98 -11t67 -24q31 -16 52 -35l9 53h268 zM752 852q-12 8 -30 15q-15 6 -38.5 11t-56.5 5q-69 0 -115 -28t-78 -73q-40 -55 -66 -150t-26 -222q0 -37 4.5 -70.5t16.5 -59t33.5 -40.5t54.5 -15q18 0 34 4t33.5 14.5t36.5 29t43 46.5q19 24 36 52t30.5 58t23 60t14.5 58l50 305v0z"/>
<glyph glyph-name="r" unicode="r" horiz-adv-x="788" d="M807 809q-10 10 -26 19q-14 8 -34 14t-49 6q-51 0 -95 -24.5t-89 -80.5q-43 -52 -73 -113.5t-38 -111.5l-81 -518h-275l170 1073h268l-39 -246q15 31 35 64q17 28 42.5 61t58.5 64q40 37 82 55.5t92 18.5q32 0 53.5 -5.5t35.5 -11.5q16 -7 25 -16z"/>
<glyph glyph-name="s" unicode="s" horiz-adv-x="801" d="M754 782q-29 27 -67 48q-32 18 -78.5 33.5t-104.5 15.5q-38 0 -63 -6.5t-40 -19t-21.5 -29.5t-6.5 -38q0 -19 6 -33t17 -26t26.5 -23.5t34.5 -25.5l96 -70q33 -24 62.5 -49.5t52 -58.5t36 -77t13.5 -104q0 -65 -19 -126t-64.5 -108t-120.5 -75t-187 -28q-81 0 -141 12 t-102 27q-48 18 -83 40l33 242q29 -32 70 -57q35 -21 87.5 -38.5t124.5 -17.5q25 0 50 3.5t45.5 15t33.5 31.5t13 53q0 22 -5.5 37.5t-16.5 28t-28 25t-40 28.5l-91 63q-38 27 -68 55.5t-51 62.5t-32.5 75.5t-11.5 93.5q0 95 35 158.5t89.5 101t120.5 53t127 15.5 q75 0 131.5 -12.5t94.5 -27.5q44 -18 75 -40z"/>
<glyph glyph-name="t" unicode="t" horiz-adv-x="664" d="M702 868h-245l-70 -444l-5 -30t-5.5 -36.5t-4 -36.5t-1.5 -30q0 -19 4 -37t16 -32.5t34 -23t58 -8.5q29 0 51.5 5.5t37.5 12.5q18 8 30 19l-39 -204q-18 -12 -47 -21q-25 -8 -63.5 -14t-94.5 -6q-65 0 -110 13.5t-75 35t-46.5 48.5t-24.5 55t-10 53.5t-2 43.5q0 41 6 84 t13 86l73 467h-110l32 201h111l29 186l284 58l-39 -244h246z"/>
<glyph glyph-name="u" unicode="u" horiz-adv-x="1128" d="M911 0h-268l37 231q-14 -28 -32 -56q-17 -24 -41 -53.5t-56 -55.5q-29 -25 -57 -41t-56.5 -25t-58 -12.5t-60.5 -3.5q-55 0 -93.5 12t-65 31.5t-42 45t-23.5 53t-10.5 54t-2.5 49.5q0 18 1.5 42.5t4.5 50.5t6 51t6 43l105 657h274l-90 -569q-2 -11 -5 -31t-6 -43.5 t-5 -48t-2 -45.5t3.5 -38.5t13 -30t26.5 -19t43 -6.5q51 0 92 27.5t76 72.5q40 51 66 108t34 105l82 518h274z"/>
<glyph glyph-name="v" unicode="v" horiz-adv-x="942" d="M532 -4h-329l-137 1077h274l66 -674q4 -41 5.5 -72.5t1.5 -53.5q0 -26 -1 -44q5 18 13 44q7 22 18 53.5t28 72.5l281 674h268z"/>
<glyph glyph-name="w" unicode="w" horiz-adv-x="1536" d="M1141 -4h-324l-31 520q-2 35 -3 72.5t-2 69.5q-1 36 -1 71q-7 -25 -16 -53q-8 -24 -18 -55.5t-21 -65.5l-197 -559h-340l-122 1077h270l55 -690q2 -27 3 -61t1 -63v-69q8 26 18 57q17 54 46 138l241 688h285l41 -694q2 -25 2 -58v-63v-72q6 32 16 66q8 29 19.5 66 t26.5 75l264 680h260z"/>
<glyph glyph-name="x" unicode="x" horiz-adv-x="920" d="M621 537l282 -537h-285l-192 358l-250 -358h-278l419 561l-272 512h291l176 -334l233 334h277z"/>
<glyph glyph-name="y" unicode="y" horiz-adv-x="938" d="M446 -172q-34 -72 -75.5 -134.5t-100.5 -103.5q-51 -34 -110.5 -47.5t-128.5 -13.5q-48 0 -83 5t-59 11q-28 7 -49 17l35 207q15 -11 34 -20q17 -8 40.5 -13.5t54.5 -5.5q37 0 66.5 6t55 22.5t47 45t42.5 73.5l21 45l-175 1151h277l74 -579q4 -34 7.5 -67t5 -61t2 -49.5 t-0.5 -31.5q8 26 19 57q9 26 21.5 59t27.5 68l258 604h264z"/>
<glyph glyph-name="z" unicode="z" horiz-adv-x="879" d="M891 893l-582 -692h463l-33 -201h-780l29 180l579 692h-432l31 201h754z"/>
<glyph glyph-name="braceleft" unicode="{" horiz-adv-x="936" d="M907 1386q-11 7 -36.5 13t-53.5 6q-34 0 -56.5 -9.5t-37 -29t-23.5 -49t-16 -68.5l-59 -344q-9 -51 -20 -100.5t-34.5 -92.5t-63.5 -77t-106 -53q38 -14 62 -36.5t37.5 -51.5t18.5 -62.5t5 -69.5q0 -35 -3.5 -70.5t-8.5 -66.5l-57 -362q-6 -37 -6.5 -67.5t10 -52 t34.5 -33t66 -11.5q28 0 49 5t35 11l-29 -164q-9 -3 -27.5 -7t-42.5 -7t-50 -5.5t-50 -2.5q-88 0 -142.5 24.5t-82.5 66t-34 95t3 111.5l62 385q5 26 6.5 49t1.5 45q0 186 -156 201l27 156q100 0 157.5 65t80.5 199l61 356q10 56 27.5 110t52.5 96t92.5 67.5t149.5 25.5 q71 0 120 -11t66 -18z"/>
<glyph glyph-name="bar" unicode="|" horiz-adv-x="608" d="M283 -362h-273l314 1939h272z"/>
<glyph glyph-name="braceright" unicode="}" horiz-adv-x="936" d="M807 449q-100 0 -157.5 -65.5t-80.5 -199.5l-61 -356q-10 -56 -27.5 -110t-52.5 -96t-93 -67.5t-149 -25.5q-71 0 -120 11t-66 18l29 166q11 -7 36.5 -13t53.5 -6q34 0 56 9.5t37 29t24 49t16 68.5l59 344q9 51 20 100.5t34 92.5t63.5 77t106.5 53q-38 14 -62 36.5 t-37.5 51.5t-18.5 62.5t-5 69.5q0 35 3.5 70.5t8.5 66.5l57 362q6 37 6.5 67.5t-10 52t-34.5 33t-66 11.5q-28 0 -49 -5t-35 -11l29 164q9 3 27.5 7t42.5 7t50 5.5t50 2.5q88 0 142.5 -25t82.5 -66t34 -94.5t-3 -111.5l-62 -385q-5 -26 -6.5 -49t-1.5 -45q0 -186 156 -201z "/>
<glyph glyph-name="asciitilde" unicode="~" horiz-adv-x="1430" d="M1413 915q-11 -47 -24 -94q-11 -40 -27.5 -85t-36.5 -81q-45 -80 -115 -113.5t-155 -33.5q-36 0 -73 6.5t-73 17t-71.5 24t-69.5 26.5l-160 61q-49 19 -85 30.5t-63 18t-48.5 8.5t-42.5 2q-56 0 -99 -20t-75 -74q-15 -25 -26 -49.5t-19 -44.5q-9 -24 -15 -45l-123 43 q10 53 25 105q13 45 31.5 93.5t42.5 86.5q26 41 54.5 68.5t61 44t69.5 23.5t79 7q36 0 72.5 -6.5t73 -17t72 -24t69.5 -26.5l161 -61q49 -18 84 -30t62 -18.5t49 -9t45 -2.5q43 0 88.5 17.5t79.5 64.5q17 24 28 46.5t19 39.5q9 20 14 39l121 -37v0z"/>
<glyph glyph-name="nonbreakingspace" unicode=" " horiz-adv-x="410"/>
<glyph glyph-name="exclamdown" unicode="¡" horiz-adv-x="561" d="M551 1292q0 -37 -11.5 -68.5t-32.5 -54.5t-52 -36t-70 -13q-31 0 -57.5 11t-46 31t-30.5 48.5t-11 63.5t11.5 66t33 54t52 36.5t69.5 13.5q66 0 105.5 -39.5t39.5 -112.5zM336 27l-275 -37l179 1034h243z"/>
<glyph glyph-name="cent" unicode="¢" d="M993 981q-20 23 -50 41q-26 15 -65 28t-94 13q-54 0 -104 -17t-92 -63q-29 -32 -48.5 -71.5t-32.5 -84.5t-18.5 -94t-5.5 -98q0 -59 11.5 -106.5t39 -82t72.5 -53t113 -18.5q50 0 88.5 12t64.5 27q31 17 54 39l-43 -226q-21 -14 -49 -25q-24 -10 -60 -19.5t-82 -14.5 l-30 -191h-226l33 209q-90 25 -143 74t-80 108t-35 120.5t-8 109.5q0 117 23.5 226.5t74.5 199.5t131.5 152.5t194.5 85.5l28 172l230 24l-31 -192q45 -9 78 -21.5t54 -24.5q25 -14 42 -28z"/>
<glyph glyph-name="sterling" unicode="£" d="M1130 1120q-21 32 -54 58q-29 22 -74 40.5t-111 18.5q-75 0 -132.5 -31t-94.5 -90q-20 -30 -32 -59t-20.5 -60.5t-15.5 -67.5t-16 -81h323l-31 -182h-321q-17 -79 -33 -132.5t-33.5 -90.5t-37.5 -63.5t-44 -51.5q-16 -18 -34 -33.5t-35 -29t-31.5 -24t-23.5 -16.5 q21 11 54.5 21t78.5 10q29 0 59 -4t59 -10l140 -33q15 -3 46.5 -7.5t65.5 -4.5q33 0 66 8t62 20.5t53.5 28.5t40.5 31l-58 -256q-21 -15 -47.5 -26t-55.5 -17.5t-57.5 -9.5t-52.5 -3q-56 0 -105 7t-96 18l-145 33q-31 6 -66.5 10t-70.5 4q-26 0 -55 -4t-59 -12.5t-60 -21.5 t-56 -30l-71 154q27 13 53 28q22 13 45.5 29.5t40.5 34.5q25 27 51 63t50 88t45.5 123t39.5 169h-165l30 182h164q17 83 34 160.5t52 154.5q31 67 76.5 122t106 93t135 59t163.5 21q75 0 132 -13t95 -29q45 -18 77 -42z"/>
<glyph glyph-name="currency" unicode="¤" horiz-adv-x="1137" d="M981 186l-119 119q-134 -94 -293 -94q-157 0 -293 94l-118 -119l-121 121l119 119q-95 131 -95 293q0 78 23.5 151.5t71.5 141.5l-119 118l121 121l118 -118q133 94 293 94q159 0 293 -94l119 118l121 -121l-119 -118q48 -66 71 -138.5t23 -152.5q0 -79 -23 -152.5 t-71 -142.5l119 -119zM852 719q0 118 -84 207q-82 88 -199 88q-118 0 -200 -88q-82 -85 -82 -207q0 -60 20 -112t62 -97q83 -86 200 -86q116 0 199 86q84 90 84 209z"/>
<glyph glyph-name="yen" unicode="¥" d="M823 776h172l-26 -176h-264l-27 -154h264l-27 -176h-264l-45 -270h-278l45 270h-256l26 176h256l27 154h-256l27 176h165l-227 664h295l170 -598l369 598h295z"/>
<glyph glyph-name="brokenbar" unicode="¦" horiz-adv-x="1085" d="M705 715h-273l115 725h272zM530 -362h-272l113 694h270z"/>
<glyph glyph-name="section" unicode="§" horiz-adv-x="1094" d="M1020 1253q-30 32 -70 58q-34 22 -82.5 40.5t-111.5 18.5q-71 0 -112.5 -26.5t-41.5 -83.5q0 -21 4 -37.5t14 -32t26.5 -32t41.5 -36.5l158 -125q40 -32 70.5 -65t51.5 -71t31.5 -83t10.5 -102q0 -62 -13.5 -112.5t-35 -91t-49.5 -72t-57 -54.5q-69 -55 -155 -82l11 -8 q49 -38 77.5 -100.5t28.5 -141.5q0 -58 -18.5 -119t-64.5 -110.5t-125 -81t-199 -31.5q-87 0 -148.5 15t-101.5 34q-47 22 -78 50l37 225q30 -33 70 -59q34 -22 82.5 -40t111.5 -18q71 0 112.5 27t41.5 84q0 21 -4 37.5t-14 32t-26.5 31.5t-41.5 36l-158 125 q-40 32 -70.5 65t-51.5 71t-31.5 83t-10.5 102q0 62 13 112.5t35 91t49.5 72t56.5 54.5q68 55 155 82l-10 8q-50 38 -78 100.5t-28 141.5q0 58 18.5 119t64.5 110.5t125 81t199 31.5q86 0 148 -15.5t102 -33.5q47 -22 78 -49zM743 635q0 33 -9 61t-24 52t-34.5 44t-40.5 37 l-53 43q-53 -23 -94 -59q-18 -15 -34.5 -35t-29.5 -45t-21 -54.5t-8 -64.5q0 -33 9.5 -61t24.5 -52t34.5 -44t40.5 -37l53 -43q52 23 93 59q17 15 34 35t30 45t21 54.5t8 64.5z"/>
<glyph glyph-name="dieresis" unicode="¨" horiz-adv-x="1024" d="M860 1395q0 -32 -11 -58.5t-30 -45.5t-45 -29.5t-57 -10.5q-51 0 -84 30.5t-33 86.5q0 32 11 58.5t30 45t45.5 29t56.5 10.5q51 0 84 -30.5t33 -85.5zM432 1395q0 -32 -11 -58.5t-30 -45.5t-45 -29.5t-57 -10.5q-51 0 -84 30.5t-33 86.5q0 32 11 58.5t30 45t45 29 t57 10.5q51 0 84 -30.5t33 -85.5z"/>
<glyph glyph-name="copyright" unicode="©" horiz-adv-x="1788" d="M1706 655q0 -178 -58.5 -329t-164.5 -261.5t-252.5 -172.5t-323.5 -62t-325 61t-254.5 169.5t-166 258t-59.5 326.5q0 179 60 329t167.5 258.5t257 169t328.5 60.5q180 0 326 -60t249.5 -167t159.5 -255t56 -325zM1563 655q0 147 -45 272.5t-129 217.5t-204 144t-270 52 q-153 0 -276 -52.5t-210 -145.5t-134 -220.5t-47 -277.5q0 -148 47.5 -275.5t134 -221t208 -146.5t269.5 -53q150 0 271 53.5t206.5 148t132 223.5t46.5 281zM1206 195q-23 -20 -62 -36q-33 -14 -87 -25t-133 -11q-122 0 -213 41t-151 110.5t-90 162.5t-30 198 q0 94 20.5 171.5t57.5 143.5q29 52 73 94t99.5 70.5t121 44t136.5 15.5q66 0 114.5 -10.5t81.5 -23.5q39 -15 66 -34v-193q-23 25 -57 44q-29 17 -74 30.5t-108 13.5q-65 0 -122.5 -18t-101 -59.5t-69 -109t-25.5 -165.5q0 -78 20 -143.5t59.5 -112t99 -72.5t137.5 -26 q66 0 112 15.5t76 34.5q34 22 57 50z"/>
<glyph glyph-name="ordfeminine" unicode="ª" horiz-adv-x="788" d="M725 655h-207l29 176q-8 -19 -19 -38q-10 -17 -24 -37t-33 -39q-44 -45 -82 -60.5t-84 -15.5q-203 0 -203 281q0 65 8.5 130.5t27 125.5t48 111.5t72 90t97.5 60.5t126 22q42 0 71.5 -8t49.5 -18q23 -11 37 -25l4 39h207zM612 1272q-9 8 -21 15q-11 6 -27.5 11t-39.5 5 q-51 0 -83.5 -20t-55.5 -54q-19 -28 -32 -63t-21 -71.5t-11.5 -73t-3.5 -67.5q0 -43 7.5 -68.5t18.5 -39.5t25 -18.5t27 -4.5q26 0 49.5 15t55.5 55q15 18 27.5 40t22.5 45t17.5 45t10.5 40l34 209v0z"/>
<glyph glyph-name="guillemotleft" unicode="«" horiz-adv-x="1038" d="M788 535l105 -424h-207l-151 428l278 385h225zM338 535l104 -424h-206l-152 428l278 385h226z"/>
<glyph glyph-name="logicalnot" unicode="¬" horiz-adv-x="1311" d="M1106 381v319h-1038v177h1216v-496h-178z"/>
<glyph glyph-name="sfthyphen" unicode="­" horiz-adv-x="664" d="M561 424h-498l39 246h498z"/>
<glyph glyph-name="registered" unicode="®" horiz-adv-x="1788" d="M1706 655q0 -178 -58.5 -329t-164.5 -261.5t-252.5 -172.5t-323.5 -62t-325 61t-254.5 169.5t-166 258t-59.5 326.5q0 179 60 329t167.5 258.5t257 169t328.5 60.5q180 0 326 -60t249.5 -167t159.5 -255t56 -325zM1563 655q0 147 -45 272.5t-129 217.5t-204 144t-270 52 q-153 0 -276 -52.5t-210 -145.5t-134 -220.5t-47 -277.5q0 -148 47.5 -275.5t134 -221t208 -146.5t269.5 -53q150 0 271 53.5t206.5 148t132 223.5t46.5 281zM1079 139l-309 385v-385h-184v1043h192q43 0 89.5 -1.5t90.5 -6t82.5 -12.5t65.5 -21q65 -31 102 -89.5t37 -148.5 q0 -82 -26.5 -141.5t-70 -98t-98.5 -58t-112 -21.5l375 -445h-234zM1047 879q0 50 -14.5 80.5t-41.5 47.5t-64.5 23t-82.5 6h-70v-329h49q45 0 85.5 7t71 26.5t49 52.5t18.5 86z"/>
<glyph glyph-name="macron" unicode="¯" horiz-adv-x="993" d="M985 1268h-571l30 200h574z"/>
<glyph glyph-name="degree" unicode="°" horiz-adv-x="788" d="M788 1229q0 -65 -25.5 -123t-69.5 -101.5t-103.5 -68.5t-126.5 -25q-65 0 -123.5 25t-102 68t-69 101t-25.5 124t25 124t68.5 100.5t102 67.5t124.5 25q67 0 126.5 -25t103.5 -67.5t69.5 -100.5t25.5 -124zM662 1229q0 42 -15.5 78t-42 63t-62.5 42t-77 15q-42 0 -78 -15 t-62.5 -42t-41.5 -63t-15 -78q0 -41 15 -77.5t41.5 -64t62.5 -43.5t78 -16q41 0 77 16t62.5 43.5t42 64t15.5 77.5z"/>
<glyph glyph-name="plusminus" unicode="±" horiz-adv-x="1311" d="M768 807v-541h-186v541h-514v176h514v524h186v-524h516v-176h-516zM68 0v176h1216v-176h-1216z"/>
<glyph glyph-name="twosuperior" unicode="²" horiz-adv-x="721" d="M664 1231q0 -48 -10.5 -88t-34.5 -80t-64 -82.5t-100 -95.5q-48 -42 -82.5 -69.5t-57.5 -44.5q-27 -19 -47 -30h320l-27 -161h-565l20 141q50 36 101 76q44 34 93.5 75t92.5 82q43 42 73 74t48.5 60t26.5 54.5t8 55.5q0 50 -30.5 79.5t-90.5 29.5q-46 0 -84.5 -13 t-67.5 -28q-33 -18 -61 -41l29 174q29 16 66 29q32 11 75 20.5t96 9.5q76 0 128 -18.5t84.5 -50t46.5 -72.5t14 -86z"/>
<glyph glyph-name="threesuperior" unicode="³" horiz-adv-x="721" d="M627 1266q0 -62 -26.5 -105.5t-61.5 -71t-71 -41t-54 -14.5q39 -6 71.5 -19.5t56.5 -36t37 -55t13 -77.5q0 -81 -31.5 -135t-82 -87t-113.5 -47t-125 -14q-58 0 -99 9t-67 20q-31 12 -51 29l24 161q21 -21 48 -37q23 -14 57 -25t79 -11q88 0 131.5 37.5t43.5 99.5 q0 31 -11.5 52t-33 34.5t-52.5 19.5t-69 6h-25l21 134h30q36 0 67.5 8.5t54.5 25t36.5 41t13.5 56.5q0 49 -28 73.5t-82 24.5q-42 0 -76 -11t-60 -25q-30 -16 -55 -36l25 154q28 15 63 27q30 11 70.5 19.5t91.5 8.5q118 0 179 -46.5t61 -145.5z"/>
<glyph glyph-name="acute" unicode="´" horiz-adv-x="1024" d="M336 1194l-80 131l381 277l104 -177z"/>
<glyph glyph-name="mu" unicode="µ" horiz-adv-x="1253" d="M1182 90q-17 -30 -41 -53q-20 -20 -50.5 -36.5t-72.5 -16.5q-29 0 -52 10t-39 26.5t-25 39t-9 46.5v9q-16 -16 -45.5 -38.5t-69 -43t-88 -35t-102.5 -14.5q-66 0 -112 15.5t-75 35.5q-34 22 -55 51v-418q-31 -5 -58.5 -11.5t-58.5 -12.5q-23 -5 -47.5 -12t-44.5 -15 q-24 -9 -47 -18l-14 30q22 11 43 26q17 13 36 32t31 45q12 24 18 55t9 62.5t3.5 62.5t0.5 55v725q0 53 -1 90.5t-3.5 63.5t-7.5 43t-12 29q-13 20 -29 29.5t-30 14.5q-17 5 -34 5v34q18 -1 43 0q21 1 52 4t71 11q29 5 48 10t30 10q13 5 21 11l8 -5q-3 -18 -6 -67 q-2 -43 -3.5 -124t-1.5 -220v-175.5t11 -168.5q14 -106 87.5 -160.5t190.5 -54.5q46 0 88.5 10t75.5 23q39 15 72 34v553q0 53 -0.5 90.5t-2.5 63.5t-6.5 43t-13.5 29q-13 19 -28.5 29t-29.5 15q-17 5 -34 5v34q11 -1 29 1q16 2 42.5 4.5t67.5 9.5q29 4 50.5 9t36.5 10 q18 5 30 12l6 -5q-1 -27 -2 -81q-1 -47 -1.5 -126.5t-0.5 -205.5v-387q0 -24 1.5 -50t9.5 -47t25.5 -35t49.5 -14q23 0 35 7q6 4 10 8l21 -21v0z"/>
<glyph glyph-name="paragraph" unicode="¶" horiz-adv-x="948" d="M954 1231h-110l-199 -1198q-12 -76 -33.5 -134.5t-58.5 -105.5q-25 -31 -54.5 -53.5t-66 -37t-81 -21.5t-99.5 -7q-33 0 -65.5 4t-60.5 10.5t-50.5 13.5t-34.5 13l33 201q26 -15 66.5 -32t99.5 -17q44 0 74 9.5t50 31t32 55.5t20 82l98 590h-29q-79 0 -142.5 24 t-107.5 69t-68 110.5t-24 148.5q0 100 36 183.5t104 143.5t165.5 93t219.5 33h331z"/>
<glyph glyph-name="periodcentered" unicode="·" horiz-adv-x="594" d="M492 618q0 -42 -12 -77t-35 -60t-56.5 -39t-75.5 -14q-83 0 -131.5 48.5t-48.5 139.5q0 42 12.5 76.5t36 59t56 38t73.5 13.5q38 0 71 -13.5t57.5 -37.5t38.5 -58t14 -76z"/>
<glyph glyph-name="cedilla" unicode="¸" horiz-adv-x="1128" d="M483 -258q0 -38 -12 -70t-35 -61q-34 -42 -83 -59t-109 -17q-30 0 -53.5 3.5t-39.5 8.5q-18 5 -32 13l14 141q11 -10 26 -18q13 -7 31 -12t41 -5q25 0 41.5 7t27 18t15 25t4.5 28q0 32 -11.5 47t-28.5 29t-29 31t-12 51q0 26 6 48t20 50h142q-10 -20 -13.5 -33.5 t-3.5 -32.5q0 -26 12 -39.5t27 -27.5q9 -9 19 -19.5t18 -25t13 -34t5 -46.5z"/>
<glyph glyph-name="onesuperior" unicode="¹" horiz-adv-x="598" d="M391 580h-190l100 645l-192 -37l22 162q27 4 60 13t66.5 20.5t64 26t53.5 30.5h153z"/>
<glyph glyph-name="ordmasculine" unicode="º" horiz-adv-x="758" d="M799 1137q0 -28 -4 -76t-17 -103t-39 -111.5t-69.5 -102t-108 -74.5t-155.5 -29q-69 0 -119 15t-85 40.5t-56.5 58.5t-33.5 69t-16 72.5t-4 68.5q0 28 4 75.5t17.5 103t39 112t69 102.5t107.5 75t154 29q69 0 119 -15t85 -40.5t57 -58.5t34 -69.5t16.5 -73t4.5 -68.5z M575 1130q0 44 -4.5 77t-16 55.5t-31 33.5t-50.5 11q-28 0 -51 -12t-45 -44q-29 -43 -46.5 -116t-17.5 -164q0 -88 21.5 -132t81.5 -44q28 0 51 11.5t45 43.5q29 43 46 116t17 164z"/>
<glyph glyph-name="guillemotright" unicode="»" horiz-adv-x="1038" d="M676 111h-225l249 389l-104 424h207l151 -428zM225 111h-225l250 389l-105 424h207l152 -428z"/>
<glyph glyph-name="onequarter" unicode="¼" horiz-adv-x="1530" d="M1337 303h90l-22 -143h-90l-27 -160h-174l27 160h-410l23 151l487 566h189zM336 0h-203l1047 1440h198zM397 580h-190l100 645l-192 -37l22 162q27 4 60 13t66.5 20.5t64.5 26t53 30.5h154zM1225 680q-7 -12 -17 -27q-17 -27 -51 -65l-244 -285h250l62 377v0z"/>
<glyph glyph-name="onehalf" unicode="½" horiz-adv-x="1530" d="M1481 651q0 -48 -10 -88t-34.5 -80t-64.5 -82.5t-100 -95.5q-48 -42 -82.5 -69t-57.5 -44q-27 -19 -47 -30h320l-27 -162h-565l21 141q50 36 101 76q43 34 93 75t92 83q43 41 73 73.5t48.5 60.5t26.5 54t8 55q0 50 -30.5 79.5t-90.5 29.5q-46 0 -84.5 -13t-67.5 -28 q-33 -18 -61 -41l29 174q29 17 66 30q32 11 75 20.5t96 9.5q76 0 128 -19t84.5 -50.5t46.5 -72.5t14 -86zM283 0h-203l1046 1440h199zM375 580h-191l101 645l-193 -37l23 162q27 4 60 13t66 20.5t64 26t53 30.5h154z"/>
<glyph glyph-name="threequarters" unicode="¾" horiz-adv-x="1530" d="M1399 303h90l-23 -143h-90l-26 -160h-174l26 160h-409l22 151l488 566h188zM428 0h-203l1047 1440h198zM659 1266q0 -41 -12.5 -74.5t-32 -58.5t-43.5 -43.5t-47.5 -30.5t-44.5 -18t-33 -7q39 -6 72 -19.5t57 -36t37 -55t13 -77.5q0 -81 -32 -135t-82.5 -87t-113.5 -47 t-125 -14q-58 0 -99 9t-67 20q-31 12 -51 29l25 161q20 -21 47 -37q23 -14 57.5 -25t79.5 -11q88 0 131 37.5t43 99.5t-44 87t-122 25h-24l20 134h31q36 0 67.5 8.5t54.5 25t36.5 41t13.5 56.5q0 49 -28.5 73.5t-82.5 24.5q-41 0 -75.5 -11t-60.5 -25q-30 -16 -54 -36 l25 154q28 15 63 27q30 11 70.5 19.5t91.5 8.5q117 0 178 -46.5t61 -145.5zM1286 680q-7 -12 -17 -27q-8 -13 -20.5 -29.5t-29.5 -35.5l-244 -285h250l61 377v0z"/>
<glyph glyph-name="questiondown" unicode="¿" horiz-adv-x="881" d="M795 1292q0 -37 -11.5 -68.5t-32.5 -54.5t-52 -36t-70 -13q-31 0 -57.5 11t-46 31t-31 48.5t-11.5 63.5t11.5 66t33 54t52.5 36.5t69 13.5q66 0 106 -39.5t40 -112.5zM754 70q-43 -28 -98 -50q-48 -19 -115.5 -34t-153.5 -15q-98 0 -168.5 23.5t-116 66t-67 101.5 t-21.5 129q0 56 12 106t38 98t67.5 94.5t101.5 94.5l138 111q30 24 48.5 43t30 39.5t18 44t11.5 55.5l8 47h252l-12 -76q-5 -35 -13.5 -67t-22.5 -61.5t-35 -57.5t-52 -55l-143 -127q-36 -32 -66 -59.5t-52 -56t-34 -61t-12 -73.5q0 -73 47 -107.5t135 -34.5q69 0 127 21 t100 47q49 30 89 68z"/>
<glyph glyph-name="Agrave" unicode="À" horiz-adv-x="1182" d="M825 0l-47 432h-428l-182 -432h-274l657 1442h379l184 -1442h-289zM707 1098q-5 35 -7 65.5t-3 54.5q-1 27 -1 52q-6 -23 -16 -49q-8 -23 -20 -54t-27 -67l-193 -457h316zM927 1532l-405 231l106 176l381 -276z"/>
<glyph glyph-name="Aacute" unicode="Á" horiz-adv-x="1182" d="M825 0l-47 432h-428l-182 -432h-274l657 1442h379l184 -1442h-289zM707 1098q-5 35 -7 65.5t-3 54.5q-1 27 -1 52q-6 -23 -16 -49q-8 -23 -20 -54t-27 -67l-193 -457h316zM596 1532l-80 131l381 276l105 -176z"/>
<glyph glyph-name="Acircumflex" unicode="Â" horiz-adv-x="1182" d="M825 0l-47 432h-428l-182 -432h-274l657 1442h379l184 -1442h-289zM707 1098q-5 35 -7 65.5t-3 54.5q-1 27 -1 52q-6 -23 -16 -49q-8 -23 -20 -54t-27 -67l-193 -457h316zM997 1532l-225 188l-299 -188l-76 119l408 307l297 -307z"/>
<glyph glyph-name="Atilde" unicode="Ã" horiz-adv-x="1182" d="M825 0l-47 432h-428l-182 -432h-274l657 1442h379l184 -1442h-289zM707 1098q-5 35 -7 65.5t-3 54.5q-1 27 -1 52q-6 -23 -16 -49q-8 -23 -20 -54t-27 -67l-193 -457h316zM1103 1790q-26 -60 -62 -107q-15 -20 -34 -39t-41.5 -34t-48 -24t-53.5 -9q-29 0 -52.5 6.5 t-52.5 20.5l-47 22q-26 12 -43 16.5t-31 4.5q-26 0 -45.5 -11t-33.5 -25q-17 -16 -29 -36l-96 70q30 57 67 103q16 19 35 37.5t40.5 33t46 23.5t50.5 9q28 0 50 -5.5t53 -20.5l47 -23q43 -20 71 -20q26 0 44 10.5t30 24.5q14 16 23 36l112 -63v0z"/>
<glyph glyph-name="Adieresis" unicode="Ä" horiz-adv-x="1182" d="M825 0l-47 432h-428l-182 -432h-274l657 1442h379l184 -1442h-289zM707 1098q-5 35 -7 65.5t-3 54.5q-1 27 -1 52q-6 -23 -16 -49q-8 -23 -20 -54t-27 -67l-193 -457h316zM1122 1733q0 -32 -11 -58.5t-30 -45.5t-45.5 -29.5t-56.5 -10.5q-51 0 -84 30.5t-33 86.5 q0 32 11 58.5t30 45t45 29t57 10.5q51 0 84 -30.5t33 -85.5zM694 1733q0 -32 -11 -58.5t-30 -45.5t-45.5 -29.5t-56.5 -10.5q-51 0 -84 30.5t-33 86.5q0 32 11 58.5t30 45t45 29t57 10.5q51 0 84 -30.5t33 -85.5z"/>
<glyph glyph-name="Aring" unicode="Å" horiz-adv-x="1182" d="M825 0l-47 432h-428l-182 -432h-274l657 1442h379l184 -1442h-289zM707 1098q-5 35 -7 65.5t-3 54.5q-1 27 -1 52q-6 -23 -16 -49q-8 -23 -20 -54t-27 -67l-193 -457h316zM1022 1794q0 -63 -20.5 -113.5t-56 -85.5t-84 -54t-105.5 -19q-48 0 -89.5 15t-72 44t-47.5 71.5 t-17 96.5q0 58 20.5 106.5t56.5 83.5t85 54.5t107 19.5q51 0 92.5 -15.5t70.5 -44t44.5 -69t15.5 -90.5zM889 1782q0 30 -8.5 50.5t-23 33.5t-33.5 18.5t-40 5.5q-27 0 -49 -10.5t-37.5 -28.5t-24.5 -43t-9 -53q0 -31 8 -52.5t22 -35t32.5 -19.5t39.5 -6q28 0 51 11t39 30 t24.5 44.5t8.5 54.5z"/>
<glyph glyph-name="AE" unicode="Æ" horiz-adv-x="1649" d="M1673 1208h-444l-64 -407h363l-37 -232h-363l-55 -342h481l-47 -227h-749l92 575h-297l-348 -575h-318l899 1440h924zM967 1305q-11 -22 -27 -51t-33 -58l-229 -395h205l84 504v0z"/>
<glyph glyph-name="Ccedilla" unicode="Ç" horiz-adv-x="1128" d="M1151 1114q-27 33 -72 59q-38 23 -100.5 41.5t-153.5 18.5q-93 0 -162 -30t-117.5 -80t-79 -115t-47.5 -136t-23.5 -142.5t-6.5 -133.5q0 -66 10 -135.5t44.5 -127t100.5 -94t177 -36.5q77 0 136 18.5t101 41.5q48 26 84 61l-53 -261q-30 -20 -73 -37 q-37 -14 -91.5 -27.5t-128.5 -18.5q-8 -20 -8 -46t12 -39.5t27 -27.5q9 -9 19 -19.5t18 -25t13 -34t5 -46.5q0 -38 -12 -70t-35 -61q-34 -42 -83 -59t-109 -17q-30 0 -53.5 3.5t-39.5 8.5q-18 5 -32 13l14 141q11 -10 26 -18q13 -7 31 -12t41 -5q25 0 41.5 7t27 18t15 25 t4.5 28q0 32 -11.5 47t-28.5 29t-29 31t-12 51q0 21 4.5 39.5t13.5 40.5q-127 12 -213.5 61t-140 126.5t-76.5 179t-23 218.5q0 99 13 188.5t35.5 168.5t54 146.5t69.5 121.5q61 87 130 139.5t140.5 80.5t142.5 37t136 9q94 0 162.5 -16t114.5 -36q53 -23 90 -52z"/>
<glyph glyph-name="Egrave" unicode="È" horiz-adv-x="938" d="M963 1208h-445l-57 -362h362l-37 -232h-362l-62 -387h482l-47 -227h-750l227 1440h725zM823 1532l-405 231l106 176l381 -276z"/>
<glyph glyph-name="Eacute" unicode="É" horiz-adv-x="938" d="M963 1208h-445l-57 -362h362l-37 -232h-362l-62 -387h482l-47 -227h-750l227 1440h725zM526 1532l-80 131l381 276l105 -176z"/>
<glyph glyph-name="Ecircumflex" unicode="Ê" horiz-adv-x="938" d="M963 1208h-445l-57 -362h362l-37 -232h-362l-62 -387h482l-47 -227h-750l227 1440h725zM899 1532l-225 188l-299 -188l-76 119l408 307l297 -307z"/>
<glyph glyph-name="Edieresis" unicode="Ë" horiz-adv-x="938" d="M963 1208h-445l-57 -362h362l-37 -232h-362l-62 -387h482l-47 -227h-750l227 1440h725zM992 1733q0 -32 -11 -58.5t-30 -45.5t-45.5 -29.5t-56.5 -10.5q-51 0 -84 30.5t-33 86.5q0 32 11 58.5t30 45t45 29t57 10.5q51 0 84 -30.5t33 -85.5zM564 1733q0 -32 -11 -58.5 t-30 -45.5t-45.5 -29.5t-56.5 -10.5q-51 0 -84 30.5t-33 86.5q0 32 11 58.5t30 45t45 29t57 10.5q51 0 84 -30.5t33 -85.5z"/>
<glyph glyph-name="Igrave" unicode="Ì" horiz-adv-x="541" d="M328 0h-281l227 1440h281zM604 1532l-405 231l106 176l381 -276z"/>
<glyph glyph-name="Iacute" unicode="Í" horiz-adv-x="541" d="M328 0h-281l227 1440h281zM276 1532l-79 131l381 276l104 -176z"/>
<glyph glyph-name="Icircumflex" unicode="Î" horiz-adv-x="541" d="M328 0h-281l227 1440h281zM686 1532l-225 188l-299 -188l-76 119l408 307l297 -307z"/>
<glyph glyph-name="Idieresis" unicode="Ï" horiz-adv-x="541" d="M328 0h-281l227 1440h281zM799 1733q0 -32 -11 -58.5t-30.5 -45.5t-45.5 -29.5t-57 -10.5q-51 0 -83.5 30.5t-32.5 86.5q0 32 11 58.5t30 45t45 29t57 10.5q51 0 84 -30.5t33 -85.5zM371 1733q0 -32 -11 -58.5t-30.5 -45.5t-45.5 -29.5t-57 -10.5q-51 0 -83.5 30.5 t-32.5 86.5q0 32 11 58.5t30 45t45 29t57 10.5q51 0 84 -30.5t33 -85.5z"/>
<glyph glyph-name="Eth" unicode="Ð" horiz-adv-x="1311" d="M1270 879q0 -111 -16 -213.5t-47.5 -192t-79 -164.5t-111.5 -131q-68 -60 -139 -95.5t-150 -53.5t-168 -23.5t-192 -5.5h-320l100 637h-127l29 190h127l98 613h318q108 0 189 -6.5t142.5 -23t108.5 -43.5t88 -69q75 -75 112.5 -178.5t37.5 -240.5zM987 856 q0 116 -27 192.5t-86 118.5q-35 25 -89 36t-142 11h-123l-61 -387h295l-39 -190h-287l-66 -412h162q93 0 163.5 26.5t122 72.5t85.5 107.5t54.5 131.5t29 145t8.5 148z"/>
<glyph glyph-name="Ntilde" unicode="Ñ" horiz-adv-x="1317" d="M1102 0h-297l-273 748q-23 62 -36.5 115.5t-21.5 92.5q-9 46 -13 84l-168 -1040h-248l231 1440h308l243 -717q20 -59 36.5 -120t27.5 -112q13 -59 24 -114l170 1063h248zM1204 1790q-26 -60 -62 -107q-15 -20 -34 -39t-41.5 -34t-48 -24t-53.5 -9q-29 0 -52.5 6.5 t-52.5 20.5l-47 22q-26 12 -43 16.5t-31 4.5q-26 0 -45.5 -11t-33.5 -25q-17 -16 -29 -36l-96 70q30 57 67 103q16 19 35 37.5t40.5 33t46 23.5t50.5 9q28 0 50 -5.5t53 -20.5l47 -23q43 -20 71 -20q26 0 44 10.5t30 24.5q14 16 23 36l112 -63v0z"/>
<glyph glyph-name="Ograve" unicode="Ò" horiz-adv-x="1327" d="M1286 868q0 -17 -1.5 -64t-10 -113t-26 -144.5t-49 -158t-80 -154t-118.5 -132t-164.5 -92.5t-218.5 -35q-119 0 -203.5 30t-141.5 79.5t-91 112t-52 128t-23 128.5t-5 112q0 16 1.5 63.5t10 113.5t26 144.5t49.5 158t80 154t118.5 132t164.5 92.5t218 35 q119 0 203.5 -30t141.5 -79t91 -112t52 -128.5t23 -128.5t5 -112zM999 877q0 115 -21.5 185.5t-56 108.5t-78.5 51t-89 13q-36 0 -67.5 -6t-60 -20.5t-54 -38t-50.5 -58.5q-32 -46 -57 -109t-42 -135.5t-25.5 -152t-8.5 -158.5q0 -115 21.5 -185.5t56 -108.5t79 -51 t89.5 -13q72 0 127 26t104 97q32 46 57 108.5t42 135.5t25.5 152.5t8.5 158.5zM1003 1532l-405 231l106 176l381 -276z"/>
<glyph glyph-name="Oacute" unicode="Ó" horiz-adv-x="1327" d="M1286 868q0 -17 -1.5 -64t-10 -113t-26 -144.5t-49 -158t-80 -154t-118.5 -132t-164.5 -92.5t-218.5 -35q-119 0 -203.5 30t-141.5 79.5t-91 112t-52 128t-23 128.5t-5 112q0 16 1.5 63.5t10 113.5t26 144.5t49.5 158t80 154t118.5 132t164.5 92.5t218 35 q119 0 203.5 -30t141.5 -79t91 -112t52 -128.5t23 -128.5t5 -112zM999 877q0 115 -21.5 185.5t-56 108.5t-78.5 51t-89 13q-36 0 -67.5 -6t-60 -20.5t-54 -38t-50.5 -58.5q-32 -46 -57 -109t-42 -135.5t-25.5 -152t-8.5 -158.5q0 -115 21.5 -185.5t56 -108.5t79 -51 t89.5 -13q72 0 127 26t104 97q32 46 57 108.5t42 135.5t25.5 152.5t8.5 158.5zM686 1532l-80 131l381 276l105 -176z"/>
<glyph glyph-name="Ocircumflex" unicode="Ô" horiz-adv-x="1327" d="M1286 868q0 -17 -1.5 -64t-10 -113t-26 -144.5t-49 -158t-80 -154t-118.5 -132t-164.5 -92.5t-218.5 -35q-119 0 -203.5 30t-141.5 79.5t-91 112t-52 128t-23 128.5t-5 112q0 16 1.5 63.5t10 113.5t26 144.5t49.5 158t80 154t118.5 132t164.5 92.5t218 35 q119 0 203.5 -30t141.5 -79t91 -112t52 -128.5t23 -128.5t5 -112zM999 877q0 115 -21.5 185.5t-56 108.5t-78.5 51t-89 13q-36 0 -67.5 -6t-60 -20.5t-54 -38t-50.5 -58.5q-32 -46 -57 -109t-42 -135.5t-25.5 -152t-8.5 -158.5q0 -115 21.5 -185.5t56 -108.5t79 -51 t89.5 -13q72 0 127 26t104 97q32 46 57 108.5t42 135.5t25.5 152.5t8.5 158.5zM1077 1532l-225 188l-299 -188l-76 119l408 307l297 -307z"/>
<glyph glyph-name="Otilde" unicode="Õ" horiz-adv-x="1327" d="M1286 868q0 -17 -1.5 -64t-10 -113t-26 -144.5t-49 -158t-80 -154t-118.5 -132t-164.5 -92.5t-218.5 -35q-119 0 -203.5 30t-141.5 79.5t-91 112t-52 128t-23 128.5t-5 112q0 16 1.5 63.5t10 113.5t26 144.5t49.5 158t80 154t118.5 132t164.5 92.5t218 35 q119 0 203.5 -30t141.5 -79t91 -112t52 -128.5t23 -128.5t5 -112zM999 877q0 115 -21.5 185.5t-56 108.5t-78.5 51t-89 13q-36 0 -67.5 -6t-60 -20.5t-54 -38t-50.5 -58.5q-32 -46 -57 -109t-42 -135.5t-25.5 -152t-8.5 -158.5q0 -115 21.5 -185.5t56 -108.5t79 -51 t89.5 -13q72 0 127 26t104 97q32 46 57 108.5t42 135.5t25.5 152.5t8.5 158.5zM1164 1790q-26 -60 -62 -107q-15 -20 -34 -39t-41.5 -34t-48 -24t-53.5 -9q-29 0 -52.5 6.5t-52.5 20.5l-47 22q-26 12 -43 16.5t-31 4.5q-26 0 -45.5 -11t-33.5 -25q-17 -16 -29 -36l-96 70 q30 57 67 103q16 19 35 37.5t40.5 33t46 23.5t50.5 9q28 0 50 -5.5t53 -20.5l47 -23q43 -20 71 -20q26 0 44 10.5t30 24.5q14 16 23 36l112 -63v0z"/>
<glyph glyph-name="Odieresis" unicode="Ö" horiz-adv-x="1327" d="M1286 868q0 -17 -1.5 -64t-10 -113t-26 -144.5t-49 -158t-80 -154t-118.5 -132t-164.5 -92.5t-218.5 -35q-119 0 -203.5 30t-141.5 79.5t-91 112t-52 128t-23 128.5t-5 112q0 16 1.5 63.5t10 113.5t26 144.5t49.5 158t80 154t118.5 132t164.5 92.5t218 35 q119 0 203.5 -30t141.5 -79t91 -112t52 -128.5t23 -128.5t5 -112zM999 877q0 115 -21.5 185.5t-56 108.5t-78.5 51t-89 13q-36 0 -67.5 -6t-60 -20.5t-54 -38t-50.5 -58.5q-32 -46 -57 -109t-42 -135.5t-25.5 -152t-8.5 -158.5q0 -115 21.5 -185.5t56 -108.5t79 -51 t89.5 -13q72 0 127 26t104 97q32 46 57 108.5t42 135.5t25.5 152.5t8.5 158.5zM1163 1733q0 -32 -11 -58.5t-30 -45.5t-45.5 -29.5t-56.5 -10.5q-51 0 -84 30.5t-33 86.5q0 32 11 58.5t30 45t45 29t57 10.5q51 0 84 -30.5t33 -85.5zM735 1733q0 -32 -11 -58.5t-30 -45.5 t-45.5 -29.5t-56.5 -10.5q-51 0 -84 30.5t-33 86.5q0 32 11 58.5t30 45t45 29t57 10.5q51 0 84 -30.5t33 -85.5z"/>
<glyph glyph-name="multiply" unicode="×" horiz-adv-x="1118" d="M977 184l-397 406l-398 -404l-135 129l399 406l-389 395l133 135l390 -395l389 395l133 -133l-389 -395l399 -408z"/>
<glyph glyph-name="Oslash" unicode="Ø" horiz-adv-x="1327" d="M1161 1300q42 -49 66.5 -106.5t37.5 -115t17 -112t4 -98.5q0 -17 -1.5 -64t-10 -113t-26 -144.5t-49 -158t-80 -154t-118.5 -132t-164.5 -92.5t-218.5 -35q-99 0 -173 20.5t-130 55.5l-100 -149h-205l185 274q-31 48 -49.5 100t-28 103t-12.5 99t-3 87q0 16 1.5 63.5 t10 113.5t26 144.5t49.5 158t80 154t118.5 132t164.5 92.5t218 35q78 0 140.5 -14t113.5 -37l68 100h208zM885 1200q-29 20 -63 27.5t-68 7.5q-36 0 -67.5 -6t-60 -20.5t-54 -38t-50.5 -58.5q-32 -46 -57 -109t-42 -135.5t-25.5 -152t-8.5 -158.5q0 -25 1 -46.5t3 -41.5 l492 731v0zM999 877q0 48 -4 88.5t-12 72.5l-522 -772q35 -41 80.5 -54t93.5 -13q72 0 127 26t104 97q32 46 57 108.5t42 135.5t25.5 152.5t8.5 158.5z"/>
<glyph glyph-name="Ugrave" unicode="Ù" horiz-adv-x="1253" d="M1145 526q-12 -77 -24.5 -140.5t-30.5 -117t-44.5 -97.5t-66.5 -81q-38 -34 -80 -56t-91 -35t-104 -18.5t-118 -5.5q-115 0 -195.5 20t-134 52.5t-84 73t-46 80.5t-19 75.5t-3.5 59.5q0 43 4 86.5t13 103.5l143 914h281l-150 -951q-5 -29 -7.5 -58t-2.5 -52 q0 -60 21.5 -96t53.5 -55t70.5 -25t73.5 -6q75 0 121.5 18t74.5 53t42.5 87.5t25.5 121.5l152 963h268zM981 1532l-405 231l106 176l381 -276z"/>
<glyph glyph-name="Uacute" unicode="Ú" horiz-adv-x="1253" d="M1145 526q-12 -77 -24.5 -140.5t-30.5 -117t-44.5 -97.5t-66.5 -81q-38 -34 -80 -56t-91 -35t-104 -18.5t-118 -5.5q-115 0 -195.5 20t-134 52.5t-84 73t-46 80.5t-19 75.5t-3.5 59.5q0 43 4 86.5t13 103.5l143 914h281l-150 -951q-5 -29 -7.5 -58t-2.5 -52 q0 -60 21.5 -96t53.5 -55t70.5 -25t73.5 -6q75 0 121.5 18t74.5 53t42.5 87.5t25.5 121.5l152 963h268zM694 1532l-80 131l381 276l105 -176z"/>
<glyph glyph-name="Ucircumflex" unicode="Û" horiz-adv-x="1253" d="M1145 526q-12 -77 -24.5 -140.5t-30.5 -117t-44.5 -97.5t-66.5 -81q-38 -34 -80 -56t-91 -35t-104 -18.5t-118 -5.5q-115 0 -195.5 20t-134 52.5t-84 73t-46 80.5t-19 75.5t-3.5 59.5q0 43 4 86.5t13 103.5l143 914h281l-150 -951q-5 -29 -7.5 -58t-2.5 -52 q0 -60 21.5 -96t53.5 -55t70.5 -25t73.5 -6q75 0 121.5 18t74.5 53t42.5 87.5t25.5 121.5l152 963h268zM1071 1532l-225 188l-299 -188l-76 119l408 307l297 -307z"/>
<glyph glyph-name="Udieresis" unicode="Ü" horiz-adv-x="1253" d="M1145 526q-12 -77 -24.5 -140.5t-30.5 -117t-44.5 -97.5t-66.5 -81q-38 -34 -80 -56t-91 -35t-104 -18.5t-118 -5.5q-115 0 -195.5 20t-134 52.5t-84 73t-46 80.5t-19 75.5t-3.5 59.5q0 43 4 86.5t13 103.5l143 914h281l-150 -951q-5 -29 -7.5 -58t-2.5 -52 q0 -60 21.5 -96t53.5 -55t70.5 -25t73.5 -6q75 0 121.5 18t74.5 53t42.5 87.5t25.5 121.5l152 963h268zM1161 1733q0 -32 -11 -58.5t-30 -45.5t-45.5 -29.5t-56.5 -10.5q-51 0 -84 30.5t-33 86.5q0 32 11 58.5t30 45t45 29t57 10.5q51 0 84 -30.5t33 -85.5zM733 1733 q0 -32 -11 -58.5t-30 -45.5t-45.5 -29.5t-56.5 -10.5q-51 0 -84 30.5t-33 86.5q0 32 11 58.5t30 45t45 29t57 10.5q51 0 84 -30.5t33 -85.5z"/>
<glyph glyph-name="Yacute" unicode="Ý" horiz-adv-x="1159" d="M696 541l-86 -541h-274l88 549l-322 891h291l209 -637l420 637h301zM651 1532l-80 131l381 276l105 -176z"/>
<glyph glyph-name="Thorn" unicode="Þ" horiz-adv-x="1120" d="M1110 881q-1 -103 -22.5 -183.5t-60.5 -140.5t-92.5 -101.5t-117.5 -67t-137 -37t-150 -11.5h-151l-53 -340h-279l229 1440h275l-29 -187h113q63 0 114 -4t93 -12.5t75.5 -22.5t61.5 -34q27 -20 51 -46t41.5 -62t28 -83t10.5 -108zM821 858q0 67 -18 105.5t-48 58 t-68.5 24.5t-80.5 5h-117l-79 -504h116q57 0 110 14t94.5 49t66 95.5t24.5 152.5z"/>
<glyph glyph-name="germandbls" unicode="ß" horiz-adv-x="1245" d="M1190 1272q0 -54 -15.5 -97.5t-42.5 -79.5t-64 -66.5t-79 -57.5q-41 -27 -72.5 -47.5t-54 -40.5t-34 -41.5t-11.5 -50.5q0 -39 25 -63.5t59 -49.5l96 -70q33 -24 62.5 -49.5t52 -58.5t36 -77t13.5 -104q0 -65 -19 -126t-64.5 -108t-120.5 -75t-187 -28q-81 0 -141 12 t-102 27q-48 18 -83 40l33 242q29 -32 70 -57q35 -21 88 -38.5t125 -17.5q24 0 49.5 3.5t45.5 15t33 31.5t13 53q0 21 -5.5 36.5t-16.5 28.5t-28 25.5t-40 28.5l-90 63q-48 34 -80 65.5t-51.5 64t-28 68t-8.5 77.5q0 68 20 117t52.5 87t74.5 68t86 61q37 25 59.5 46t35 40 t16.5 37t4 39q0 31 -13 53t-35 36t-50.5 20t-59.5 6q-66 0 -112.5 -18t-75.5 -58q-10 -13 -18 -27.5t-15 -36.5t-14 -53.5t-14 -79.5l-177 -1087h-270l172 1083q13 79 29.5 149t42.5 118q31 57 73 100t98 71t129 42t167 14q95 0 174.5 -18.5t136.5 -56t89 -95t32 -135.5z "/>
<glyph glyph-name="agrave" unicode="à" d="M883 0h-269l39 238q-10 -26 -25 -52q-13 -23 -32 -50.5t-45 -53.5q-30 -30 -57 -49.5t-54 -30.5t-55 -15.5t-59 -4.5q-128 0 -193 93t-65 285q0 88 11 176t35 169t63 151.5t94 122.5t128 81.5t166 29.5q56 0 95.5 -11t65.5 -24q30 -16 50 -35l8 53h269zM741 840 q-11 11 -28 21q-14 8 -36.5 15t-53.5 7q-68 0 -112.5 -27.5t-76.5 -73.5q-26 -38 -43.5 -86t-28.5 -99.5t-15.5 -101.5t-4.5 -92q0 -61 10 -97.5t25.5 -55.5t34.5 -25t37 -6t34 4.5t32.5 15t34.5 28t40 44.5q19 24 36.5 54t31 61.5t23 61.5t13.5 53l47 299v0zM818 1194 l-406 231l106 177l381 -277z"/>
<glyph glyph-name="aacute" unicode="á" d="M883 0h-269l39 238q-10 -26 -25 -52q-13 -23 -32 -50.5t-45 -53.5q-30 -30 -57 -49.5t-54 -30.5t-55 -15.5t-59 -4.5q-128 0 -193 93t-65 285q0 88 11 176t35 169t63 151.5t94 122.5t128 81.5t166 29.5q56 0 95.5 -11t65.5 -24q30 -16 50 -35l8 53h269zM741 840 q-11 11 -28 21q-14 8 -36.5 15t-53.5 7q-68 0 -112.5 -27.5t-76.5 -73.5q-26 -38 -43.5 -86t-28.5 -99.5t-15.5 -101.5t-4.5 -92q0 -61 10 -97.5t25.5 -55.5t34.5 -25t37 -6t34 4.5t32.5 15t34.5 28t40 44.5q19 24 36.5 54t31 61.5t23 61.5t13.5 53l47 299v0zM551 1194 l-80 131l381 277l104 -177z"/>
<glyph glyph-name="acircumflex" unicode="â" d="M883 0h-269l39 238q-10 -26 -25 -52q-13 -23 -32 -50.5t-45 -53.5q-30 -30 -57 -49.5t-54 -30.5t-55 -15.5t-59 -4.5q-128 0 -193 93t-65 285q0 88 11 176t35 169t63 151.5t94 122.5t128 81.5t166 29.5q56 0 95.5 -11t65.5 -24q30 -16 50 -35l8 53h269zM741 840 q-11 11 -28 21q-14 8 -36.5 15t-53.5 7q-68 0 -112.5 -27.5t-76.5 -73.5q-26 -38 -43.5 -86t-28.5 -99.5t-15.5 -101.5t-4.5 -92q0 -61 10 -97.5t25.5 -55.5t34.5 -25t37 -6t34 4.5t32.5 15t34.5 28t40 44.5q19 24 36.5 54t31 61.5t23 61.5t13.5 53l47 299v0zM934 1194 l-226 188l-299 -188l-75 119l407 307l297 -307z"/>
<glyph glyph-name="atilde" unicode="ã" d="M883 0h-269l39 238q-10 -26 -25 -52q-13 -23 -32 -50.5t-45 -53.5q-30 -30 -57 -49.5t-54 -30.5t-55 -15.5t-59 -4.5q-128 0 -193 93t-65 285q0 88 11 176t35 169t63 151.5t94 122.5t128 81.5t166 29.5q56 0 95.5 -11t65.5 -24q30 -16 50 -35l8 53h269zM741 840 q-11 11 -28 21q-14 8 -36.5 15t-53.5 7q-68 0 -112.5 -27.5t-76.5 -73.5q-26 -38 -43.5 -86t-28.5 -99.5t-15.5 -101.5t-4.5 -92q0 -61 10 -97.5t25.5 -55.5t34.5 -25t37 -6t34 4.5t32.5 15t34.5 28t40 44.5q19 24 36.5 54t31 61.5t23 61.5t13.5 53l47 299v0zM1029 1452 q-26 -60 -62 -107q-15 -20 -34 -39t-41.5 -34t-48 -24t-54.5 -9t-52 6.5t-52 20.5l-47 22q-26 13 -43 17t-31 4q-26 0 -46 -11t-34 -25q-17 -16 -29 -36l-96 70q29 57 67 103q16 19 35 37.5t41 33t46.5 23.5t50.5 9q28 0 49.5 -5.5t52.5 -20.5l47 -23q44 -20 72 -20 q26 0 43.5 11t29.5 25q13 16 23 36l113 -64v0z"/>
<glyph glyph-name="adieresis" unicode="ä" d="M883 0h-269l39 238q-10 -26 -25 -52q-13 -23 -32 -50.5t-45 -53.5q-30 -30 -57 -49.5t-54 -30.5t-55 -15.5t-59 -4.5q-128 0 -193 93t-65 285q0 88 11 176t35 169t63 151.5t94 122.5t128 81.5t166 29.5q56 0 95.5 -11t65.5 -24q30 -16 50 -35l8 53h269zM741 840 q-11 11 -28 21q-14 8 -36.5 15t-53.5 7q-68 0 -112.5 -27.5t-76.5 -73.5q-26 -38 -43.5 -86t-28.5 -99.5t-15.5 -101.5t-4.5 -92q0 -61 10 -97.5t25.5 -55.5t34.5 -25t37 -6t34 4.5t32.5 15t34.5 28t40 44.5q19 24 36.5 54t31 61.5t23 61.5t13.5 53l47 299v0zM1028 1395 q0 -32 -11 -58.5t-30 -45.5t-45 -29.5t-57 -10.5q-51 0 -84 30.5t-33 86.5q0 32 11 58.5t30 45t45.5 29t56.5 10.5q51 0 84 -30.5t33 -85.5zM600 1395q0 -32 -11 -58.5t-30 -45.5t-45 -29.5t-57 -10.5q-51 0 -84 30.5t-33 86.5q0 32 11 58.5t30 45t45 29t57 10.5 q51 0 84 -30.5t33 -85.5z"/>
<glyph glyph-name="aring" unicode="å" d="M883 0h-269l39 238q-10 -26 -25 -52q-13 -23 -32 -50.5t-45 -53.5q-30 -30 -57 -49.5t-54 -30.5t-55 -15.5t-59 -4.5q-128 0 -193 93t-65 285q0 88 11 176t35 169t63 151.5t94 122.5t128 81.5t166 29.5q56 0 95.5 -11t65.5 -24q30 -16 50 -35l8 53h269zM741 840 q-11 11 -28 21q-14 8 -36.5 15t-53.5 7q-68 0 -112.5 -27.5t-76.5 -73.5q-26 -38 -43.5 -86t-28.5 -99.5t-15.5 -101.5t-4.5 -92q0 -61 10 -97.5t25.5 -55.5t34.5 -25t37 -6t34 4.5t32.5 15t34.5 28t40 44.5q19 24 36.5 54t31 61.5t23 61.5t13.5 53l47 299v0zM908 1419 q0 -63 -20 -113.5t-56 -85.5t-84.5 -54t-105.5 -19q-48 0 -89.5 15t-71.5 44t-47 71.5t-17 96.5q0 58 20.5 106.5t56.5 83.5t85 54.5t106 19.5q51 0 92.5 -15.5t70.5 -44t44.5 -69t15.5 -90.5zM775 1407q0 30 -8.5 51t-23 33.5t-33 18.5t-39.5 6q-27 0 -49.5 -10.5t-38 -29 t-24.5 -43.5t-9 -53q0 -31 8 -52t22 -34.5t32.5 -19.5t39.5 -6q28 0 51 10.5t39 29.5t24.5 44.5t8.5 54.5z"/>
<glyph glyph-name="ae" unicode="æ" horiz-adv-x="1606" d="M1589 817q0 -64 -14 -113.5t-40.5 -88.5t-65 -68t-87.5 -51q-60 -28 -165 -45t-238 -17h-16q-1 -3 -1 -8q-1 -5 -1 -12v-17q0 -43 9.5 -80.5t35.5 -65.5t71.5 -44.5t116.5 -16.5q67 0 118.5 13.5t86.5 30.5q41 19 71 45l-45 -234q-31 -18 -75 -32q-38 -12 -95 -21.5 t-135 -9.5q-64 0 -114.5 9.5t-89.5 24.5t-67.5 34.5t-48.5 39.5q-47 48 -63 109q-14 -19 -32 -41q-16 -19 -38.5 -42.5t-52.5 -47.5q-43 -36 -99.5 -61t-139.5 -25q-94 0 -153.5 29t-93.5 79.5t-47 119.5t-13 150q0 88 11 176t35 169t63 151.5t94 122.5t128 81.5t166 29.5 q56 0 95.5 -11t65.5 -24q30 -16 50 -35l8 53h240l-10 -57q26 19 62 35q31 14 77 25t109 11q22 0 55 -3t69.5 -12.5t72.5 -27.5t65 -48t47 -74t18 -105zM1327 805q0 108 -110 108q-56 0 -101.5 -25.5t-77.5 -82.5q-20 -35 -31.5 -68.5t-17.5 -60.5q-7 -32 -10 -60h14 q70 0 131 8t106 29t71 57.5t26 94.5zM741 840q-11 11 -28 21q-14 8 -36.5 15t-53.5 7q-68 0 -112.5 -27.5t-76.5 -73.5q-26 -38 -43.5 -86t-28.5 -99.5t-15.5 -101.5t-4.5 -92q0 -61 10 -97.5t25.5 -55.5t34.5 -25t37 -6q23 0 44.5 8t41.5 21.5t38 31.5t33 37q31 39 52 75.5 t26 70.5l57 377v0z"/>
<glyph glyph-name="ccedilla" unicode="ç" horiz-adv-x="877" d="M856 797q-20 23 -50 41q-26 15 -65 28t-94 13q-54 0 -104 -17t-92 -63q-29 -32 -48.5 -71.5t-32.5 -84.5t-18.5 -94t-5.5 -98q0 -59 11.5 -107t38.5 -82t72.5 -53t113.5 -19q50 0 88.5 12t64.5 27q31 17 53 39l-43 -225q-27 -17 -63 -30q-31 -11 -76 -20.5t-104 -10.5 q-5 -13 -6.5 -23.5t-1.5 -24.5q0 -26 11.5 -39.5t26.5 -27.5q9 -9 19 -19.5t18.5 -25t13.5 -34t5 -46.5q0 -38 -12 -70t-35 -61q-34 -42 -83.5 -59t-109.5 -17q-30 0 -53.5 3.5t-39.5 8.5q-18 5 -32 13l15 141q11 -10 26 -18q13 -7 31 -12t41 -5q24 0 41 7t27.5 18t15 25 t4.5 28q0 32 -12 47t-29 29t-29 31t-12 51q0 24 6 45t19 47q-102 21 -161.5 70t-90.5 110t-40 125t-9 115q0 87 13 171.5t40.5 159.5t70.5 138.5t103.5 109t139 71.5t177.5 26q74 0 126.5 -13t87.5 -28q40 -18 67 -41z"/>
<glyph glyph-name="egrave" unicode="è" horiz-adv-x="995" d="M979 817q0 -64 -14 -113.5t-40.5 -88.5t-65 -68t-87.5 -51q-60 -28 -165.5 -45t-237.5 -17h-17q-1 -3 -1 -8q-1 -5 -1 -12v-17q0 -43 9.5 -80.5t35.5 -65.5t71.5 -44.5t117.5 -16.5q67 0 118.5 13.5t86.5 30.5q41 19 71 45l-45 -234q-31 -18 -75 -32q-38 -12 -95 -21.5 t-135 -9.5q-98 0 -169 19.5t-120 52t-79.5 76t-47.5 91t-22.5 96.5t-5.5 93q0 135 32 258t99.5 217t172 149.5t248.5 55.5q82 0 141 -13.5t99 -36t64 -51.5t36.5 -59.5t16.5 -60t4 -52.5zM717 805q0 108 -111 108q-56 0 -101 -25.5t-77 -82.5q-20 -35 -31.5 -68.5 t-17.5 -60.5q-7 -32 -10 -60h14q70 0 131 8t106 29t71 57.5t26 94.5zM781 1194l-406 231l106 177l381 -277z"/>
<glyph glyph-name="eacute" unicode="é" horiz-adv-x="995" d="M979 817q0 -64 -14 -113.5t-40.5 -88.5t-65 -68t-87.5 -51q-60 -28 -165.5 -45t-237.5 -17h-17q-1 -3 -1 -8q-1 -5 -1 -12v-17q0 -43 9.5 -80.5t35.5 -65.5t71.5 -44.5t117.5 -16.5q67 0 118.5 13.5t86.5 30.5q41 19 71 45l-45 -234q-31 -18 -75 -32q-38 -12 -95 -21.5 t-135 -9.5q-98 0 -169 19.5t-120 52t-79.5 76t-47.5 91t-22.5 96.5t-5.5 93q0 135 32 258t99.5 217t172 149.5t248.5 55.5q82 0 141 -13.5t99 -36t64 -51.5t36.5 -59.5t16.5 -60t4 -52.5zM717 805q0 108 -111 108q-56 0 -101 -25.5t-77 -82.5q-20 -35 -31.5 -68.5 t-17.5 -60.5q-7 -32 -10 -60h14q70 0 131 8t106 29t71 57.5t26 94.5zM496 1194l-80 131l381 277l104 -177z"/>
<glyph glyph-name="ecircumflex" unicode="ê" horiz-adv-x="995" d="M979 817q0 -64 -14 -113.5t-40.5 -88.5t-65 -68t-87.5 -51q-60 -28 -165.5 -45t-237.5 -17h-17q-1 -3 -1 -8q-1 -5 -1 -12v-17q0 -43 9.5 -80.5t35.5 -65.5t71.5 -44.5t117.5 -16.5q67 0 118.5 13.5t86.5 30.5q41 19 71 45l-45 -234q-31 -18 -75 -32q-38 -12 -95 -21.5 t-135 -9.5q-98 0 -169 19.5t-120 52t-79.5 76t-47.5 91t-22.5 96.5t-5.5 93q0 135 32 258t99.5 217t172 149.5t248.5 55.5q82 0 141 -13.5t99 -36t64 -51.5t36.5 -59.5t16.5 -60t4 -52.5zM717 805q0 108 -111 108q-56 0 -101 -25.5t-77 -82.5q-20 -35 -31.5 -68.5 t-17.5 -60.5q-7 -32 -10 -60h14q70 0 131 8t106 29t71 57.5t26 94.5zM888 1194l-226 188l-299 -188l-75 119l407 307l297 -307z"/>
<glyph glyph-name="edieresis" unicode="ë" horiz-adv-x="995" d="M979 817q0 -64 -14 -113.5t-40.5 -88.5t-65 -68t-87.5 -51q-60 -28 -165.5 -45t-237.5 -17h-17q-1 -3 -1 -8q-1 -5 -1 -12v-17q0 -43 9.5 -80.5t35.5 -65.5t71.5 -44.5t117.5 -16.5q67 0 118.5 13.5t86.5 30.5q41 19 71 45l-45 -234q-31 -18 -75 -32q-38 -12 -95 -21.5 t-135 -9.5q-98 0 -169 19.5t-120 52t-79.5 76t-47.5 91t-22.5 96.5t-5.5 93q0 135 32 258t99.5 217t172 149.5t248.5 55.5q82 0 141 -13.5t99 -36t64 -51.5t36.5 -59.5t16.5 -60t4 -52.5zM717 805q0 108 -111 108q-56 0 -101 -25.5t-77 -82.5q-20 -35 -31.5 -68.5 t-17.5 -60.5q-7 -32 -10 -60h14q70 0 131 8t106 29t71 57.5t26 94.5zM987 1395q0 -32 -11 -58.5t-30 -45.5t-45 -29.5t-57 -10.5q-51 0 -84 30.5t-33 86.5q0 32 11 58.5t30 45t45.5 29t56.5 10.5q51 0 84 -30.5t33 -85.5zM559 1395q0 -32 -11 -58.5t-30 -45.5t-45 -29.5 t-57 -10.5q-51 0 -84 30.5t-33 86.5q0 32 11 58.5t30 45t45 29t57 10.5q51 0 84 -30.5t33 -85.5z"/>
<glyph glyph-name="igrave" unicode="ì" horiz-adv-x="535" d="M322 0h-275l170 1073h275zM541 1194l-406 231l107 177l381 -277z"/>
<glyph glyph-name="iacute" unicode="í" horiz-adv-x="535" d="M322 0h-275l170 1073h275zM199 1194l-80 131l381 277l104 -177z"/>
<glyph glyph-name="icircumflex" unicode="î" horiz-adv-x="535" d="M322 0h-275l170 1073h275zM635 1194l-225 188l-299 -188l-76 119l407 307l297 -307z"/>
<glyph glyph-name="idieresis" unicode="ï" horiz-adv-x="535" d="M322 0h-275l170 1073h275zM739 1395q0 -32 -11 -58.5t-30 -45.5t-45 -29.5t-57 -10.5q-51 0 -84 30.5t-33 86.5q0 32 11 58.5t30.5 45t45.5 29t57 10.5q51 0 83.5 -30.5t32.5 -85.5zM311 1395q0 -32 -11 -58.5t-30 -45.5t-45 -29.5t-57 -10.5q-51 0 -84 30.5t-33 86.5 q0 32 11 58.5t30.5 45t45.5 29t57 10.5q51 0 83.5 -30.5t32.5 -85.5z"/>
<glyph glyph-name="eth" unicode="ð" horiz-adv-x="1063" d="M963 1376q40 -74 56.5 -166t16.5 -200q0 -70 -8 -158.5t-21.5 -178.5t-31.5 -173t-39 -142q-33 -93 -73 -163.5t-94 -118t-125.5 -72t-168.5 -24.5q-104 0 -181 29t-127.5 85t-75.5 137t-25 185q0 81 11.5 162t36 155t63 138t91.5 111t122 74t155 27q62 0 104 -12.5 t68 -26.5q31 -17 49 -38l2 28q1 12 1.5 25t0.5 22q0 37 -3 77.5t-17 78.5l-132 -84l-71 115l115 73q-29 16 -68.5 25.5t-91.5 9.5q-77 0 -130.5 -15t-88.5 -32q-40 -21 -66 -47l31 225q29 19 74 35q38 13 98.5 24t148.5 11q105 0 179.5 -25t128.5 -69l145 94l72 -115z M743 807q-13 20 -35 36q-19 14 -48.5 25t-73.5 11q-55 0 -94 -26.5t-65.5 -68.5t-42.5 -93.5t-24.5 -103t-11 -96.5t-2.5 -73q0 -36 4 -77t18 -75.5t42.5 -57t76.5 -22.5q30 0 56.5 8t49.5 30.5t43 63t38 106t34 158t31 220.5l4 35v0z"/>
<glyph glyph-name="ntilde" unicode="ñ" horiz-adv-x="1128" d="M1047 844q0 -18 -2 -42t-4.5 -50t-6 -51t-6.5 -44l-104 -657h-275l90 569q1 11 4.5 31t6.5 43.5t5.5 48t2.5 45.5q0 44 -17 69t-69 25q-51 0 -92 -27.5t-76 -72.5q-40 -51 -66.5 -108t-34.5 -105l-81 -518h-275l170 1073h268l-36 -231q13 27 32 56q16 24 40.5 53.5 t56.5 56.5q29 24 57 40t56 25.5t57 13t61 3.5q55 0 94 -12t65 -32t42 -45.5t24 -53t10.5 -54.5t2.5 -49zM1033 1452q-26 -60 -62 -107q-15 -20 -34 -39t-41.5 -34t-48 -24t-54.5 -9t-52 6.5t-52 20.5l-47 22q-26 13 -43 17t-31 4q-26 0 -46 -11t-34 -25q-17 -16 -29 -36 l-96 70q29 57 67 103q16 19 35 37.5t41 33t46.5 23.5t50.5 9q28 0 49.5 -5.5t52.5 -20.5l47 -23q44 -20 72 -20q26 0 43.5 11t29.5 25q13 16 23 36l113 -64v0z"/>
<glyph glyph-name="ograve" unicode="ò" horiz-adv-x="1065" d="M999 651q0 -28 -2.5 -72t-10.5 -96.5t-23.5 -110t-42 -113.5t-64.5 -106.5t-91.5 -89t-124 -61t-161.5 -22.5q-90 0 -155.5 20.5t-111.5 54.5t-74.5 79t-44.5 94t-21.5 98.5t-5.5 93.5q0 28 2.5 72t11 96.5t24 110.5t41.5 114t64.5 106.5t92 89t124 61t160.5 22.5 t155.5 -20.5t111.5 -55t74.5 -79t44.5 -93.5t21.5 -99t5.5 -94zM719 643q0 61 -7 106.5t-23.5 75.5t-45 45t-70.5 15q-38 0 -72 -15.5t-63 -58.5q-42 -59 -67 -159t-25 -224q0 -61 7 -106.5t23.5 -75.5t45 -45t70.5 -15q38 0 72 15.5t63 58.5q42 59 67 159t25 224zM791 1194 l-406 231l106 177l381 -277z"/>
<glyph glyph-name="oacute" unicode="ó" horiz-adv-x="1065" d="M999 651q0 -28 -2.5 -72t-10.5 -96.5t-23.5 -110t-42 -113.5t-64.5 -106.5t-91.5 -89t-124 -61t-161.5 -22.5q-90 0 -155.5 20.5t-111.5 54.5t-74.5 79t-44.5 94t-21.5 98.5t-5.5 93.5q0 28 2.5 72t11 96.5t24 110.5t41.5 114t64.5 106.5t92 89t124 61t160.5 22.5 t155.5 -20.5t111.5 -55t74.5 -79t44.5 -93.5t21.5 -99t5.5 -94zM719 643q0 61 -7 106.5t-23.5 75.5t-45 45t-70.5 15q-38 0 -72 -15.5t-63 -58.5q-42 -59 -67 -159t-25 -224q0 -61 7 -106.5t23.5 -75.5t45 -45t70.5 -15q38 0 72 15.5t63 58.5q42 59 67 159t25 224zM490 1194 l-80 131l381 277l104 -177z"/>
<glyph glyph-name="ocircumflex" unicode="ô" horiz-adv-x="1065" d="M999 651q0 -28 -2.5 -72t-10.5 -96.5t-23.5 -110t-42 -113.5t-64.5 -106.5t-91.5 -89t-124 -61t-161.5 -22.5q-90 0 -155.5 20.5t-111.5 54.5t-74.5 79t-44.5 94t-21.5 98.5t-5.5 93.5q0 28 2.5 72t11 96.5t24 110.5t41.5 114t64.5 106.5t92 89t124 61t160.5 22.5 t155.5 -20.5t111.5 -55t74.5 -79t44.5 -93.5t21.5 -99t5.5 -94zM719 643q0 61 -7 106.5t-23.5 75.5t-45 45t-70.5 15q-38 0 -72 -15.5t-63 -58.5q-42 -59 -67 -159t-25 -224q0 -61 7 -106.5t23.5 -75.5t45 -45t70.5 -15q38 0 72 15.5t63 58.5q42 59 67 159t25 224zM876 1194 l-226 188l-299 -188l-75 119l407 307l297 -307z"/>
<glyph glyph-name="otilde" unicode="õ" horiz-adv-x="1065" d="M999 651q0 -28 -2.5 -72t-10.5 -96.5t-23.5 -110t-42 -113.5t-64.5 -106.5t-91.5 -89t-124 -61t-161.5 -22.5q-90 0 -155.5 20.5t-111.5 54.5t-74.5 79t-44.5 94t-21.5 98.5t-5.5 93.5q0 28 2.5 72t11 96.5t24 110.5t41.5 114t64.5 106.5t92 89t124 61t160.5 22.5 t155.5 -20.5t111.5 -55t74.5 -79t44.5 -93.5t21.5 -99t5.5 -94zM719 643q0 61 -7 106.5t-23.5 75.5t-45 45t-70.5 15q-38 0 -72 -15.5t-63 -58.5q-42 -59 -67 -159t-25 -224q0 -61 7 -106.5t23.5 -75.5t45 -45t70.5 -15q38 0 72 15.5t63 58.5q42 59 67 159t25 224zM982 1452 q-26 -60 -62 -107q-15 -20 -34 -39t-41.5 -34t-48 -24t-54.5 -9t-52 6.5t-52 20.5l-47 22q-26 13 -43 17t-31 4q-26 0 -46 -11t-34 -25q-17 -16 -29 -36l-96 70q29 57 67 103q16 19 35 37.5t41 33t46.5 23.5t50.5 9q28 0 49.5 -5.5t52.5 -20.5l47 -23q44 -20 72 -20 q26 0 43.5 11t29.5 25q13 16 23 36l113 -64v0z"/>
<glyph glyph-name="odieresis" unicode="ö" horiz-adv-x="1065" d="M999 651q0 -28 -2.5 -72t-10.5 -96.5t-23.5 -110t-42 -113.5t-64.5 -106.5t-91.5 -89t-124 -61t-161.5 -22.5q-90 0 -155.5 20.5t-111.5 54.5t-74.5 79t-44.5 94t-21.5 98.5t-5.5 93.5q0 28 2.5 72t11 96.5t24 110.5t41.5 114t64.5 106.5t92 89t124 61t160.5 22.5 t155.5 -20.5t111.5 -55t74.5 -79t44.5 -93.5t21.5 -99t5.5 -94zM719 643q0 61 -7 106.5t-23.5 75.5t-45 45t-70.5 15q-38 0 -72 -15.5t-63 -58.5q-42 -59 -67 -159t-25 -224q0 -61 7 -106.5t23.5 -75.5t45 -45t70.5 -15q38 0 72 15.5t63 58.5q42 59 67 159t25 224zM993 1395 q0 -32 -11 -58.5t-30 -45.5t-45 -29.5t-57 -10.5q-51 0 -84 30.5t-33 86.5q0 32 11 58.5t30 45t45.5 29t56.5 10.5q51 0 84 -30.5t33 -85.5zM565 1395q0 -32 -11 -58.5t-30 -45.5t-45 -29.5t-57 -10.5q-51 0 -84 30.5t-33 86.5q0 32 11 58.5t30 45t45 29t57 10.5 q51 0 84 -30.5t33 -85.5z"/>
<glyph glyph-name="divide" unicode="÷" horiz-adv-x="1311" d="M821 1147q0 -33 -11 -60t-30.5 -46t-46 -29.5t-57.5 -10.5t-58 10.5t-47 29.5t-31.5 46t-11.5 60q0 69 41 108t107 39q31 0 57.5 -10t46 -29t30.5 -46.5t11 -61.5zM68 635v176h1216v-176h-1216zM821 299q0 -35 -11 -62t-30.5 -46t-46 -29t-57.5 -10t-58 10t-47 29 t-31.5 46t-11.5 62q0 66 41 105.5t107 39.5q31 0 57.5 -9.5t46 -28.5t30.5 -46t11 -61z"/>
<glyph glyph-name="oslash" unicode="ø" horiz-adv-x="1065" d="M913 956q26 -34 43 -72.5t26.5 -78.5t13 -79.5t3.5 -74.5q0 -28 -2.5 -72t-10.5 -96.5t-23.5 -110t-42 -113.5t-64.5 -106.5t-91.5 -89t-124 -61t-161.5 -22.5q-66 0 -118.5 11t-94.5 29l-78 -114h-168l138 198q-29 35 -46.5 75t-28 81t-14 82t-3.5 78q0 28 2.5 72 t11 96.5t24 110.5t41.5 114t64.5 106.5t92 89t124 61t160.5 22.5q68 0 120.5 -12t94.5 -33l67 98h174zM668 852q-17 15 -40.5 24t-54.5 9q-38 0 -72 -15.5t-63 -58.5q-42 -59 -67 -159t-25 -224v-45l322 469v0zM719 674l-318 -459q30 -29 91 -29q38 0 72 15.5t63 58.5 q42 59 67 159t25 224v31z"/>
<glyph glyph-name="ugrave" unicode="ù" horiz-adv-x="1128" d="M911 0h-268l37 231q-14 -28 -32 -56q-17 -24 -41 -53.5t-56 -55.5q-29 -25 -57 -41t-56.5 -25t-58 -12.5t-60.5 -3.5q-55 0 -93.5 12t-65 31.5t-42 45t-23.5 53t-10.5 54t-2.5 49.5q0 18 1.5 42.5t4.5 50.5t6 51t6 43l105 657h274l-90 -569q-2 -11 -5 -31t-6 -43.5 t-5 -48t-2 -45.5t3.5 -38.5t13 -30t26.5 -19t43 -6.5q51 0 92 27.5t76 72.5q40 51 66 108t34 105l82 518h274zM818 1194l-406 231l106 177l381 -277z"/>
<glyph glyph-name="uacute" unicode="ú" horiz-adv-x="1128" d="M911 0h-268l37 231q-14 -28 -32 -56q-17 -24 -41 -53.5t-56 -55.5q-29 -25 -57 -41t-56.5 -25t-58 -12.5t-60.5 -3.5q-55 0 -93.5 12t-65 31.5t-42 45t-23.5 53t-10.5 54t-2.5 49.5q0 18 1.5 42.5t4.5 50.5t6 51t6 43l105 657h274l-90 -569q-2 -11 -5 -31t-6 -43.5 t-5 -48t-2 -45.5t3.5 -38.5t13 -30t26.5 -19t43 -6.5q51 0 92 27.5t76 72.5q40 51 66 108t34 105l82 518h274zM545 1194l-80 131l381 277l104 -177z"/>
<glyph glyph-name="ucircumflex" unicode="û" horiz-adv-x="1128" d="M911 0h-268l37 231q-14 -28 -32 -56q-17 -24 -41 -53.5t-56 -55.5q-29 -25 -57 -41t-56.5 -25t-58 -12.5t-60.5 -3.5q-55 0 -93.5 12t-65 31.5t-42 45t-23.5 53t-10.5 54t-2.5 49.5q0 18 1.5 42.5t4.5 50.5t6 51t6 43l105 657h274l-90 -569q-2 -11 -5 -31t-6 -43.5 t-5 -48t-2 -45.5t3.5 -38.5t13 -30t26.5 -19t43 -6.5q51 0 92 27.5t76 72.5q40 51 66 108t34 105l82 518h274zM926 1194l-226 188l-299 -188l-75 119l407 307l297 -307z"/>
<glyph glyph-name="udieresis" unicode="ü" horiz-adv-x="1128" d="M911 0h-268l37 231q-14 -28 -32 -56q-17 -24 -41 -53.5t-56 -55.5q-29 -25 -57 -41t-56.5 -25t-58 -12.5t-60.5 -3.5q-55 0 -93.5 12t-65 31.5t-42 45t-23.5 53t-10.5 54t-2.5 49.5q0 18 1.5 42.5t4.5 50.5t6 51t6 43l105 657h274l-90 -569q-2 -11 -5 -31t-6 -43.5 t-5 -48t-2 -45.5t3.5 -38.5t13 -30t26.5 -19t43 -6.5q51 0 92 27.5t76 72.5q40 51 66 108t34 105l82 518h274zM1026 1395q0 -32 -11 -58.5t-30 -45.5t-45 -29.5t-57 -10.5q-51 0 -84 30.5t-33 86.5q0 32 11 58.5t30 45t45.5 29t56.5 10.5q51 0 84 -30.5t33 -85.5zM598 1395 q0 -32 -11 -58.5t-30 -45.5t-45 -29.5t-57 -10.5q-51 0 -84 30.5t-33 86.5q0 32 11 58.5t30 45t45 29t57 10.5q51 0 84 -30.5t33 -85.5z"/>
<glyph glyph-name="yacute" unicode="ý" horiz-adv-x="938" d="M446 -172q-34 -72 -75.5 -134.5t-100.5 -103.5q-51 -34 -110.5 -47.5t-128.5 -13.5q-48 0 -83 5t-59 11q-28 7 -49 17l35 207q15 -11 34 -20q17 -8 40.5 -13.5t54.5 -5.5q37 0 66.5 6t55 22.5t47 45t42.5 73.5l21 45l-175 1151h277l74 -579q4 -34 7.5 -67t5 -61t2 -49.5 t-0.5 -31.5q8 26 19 57q9 26 21.5 59t27.5 68l258 604h264zM457 1194l-80 131l381 277l104 -177z"/>
<glyph glyph-name="thorn" unicode="þ" horiz-adv-x="1106" d="M1040 713q0 -75 -9 -158.5t-31 -164.5t-59 -154.5t-92.5 -129.5t-131.5 -89t-176 -33q-55 0 -94.5 10t-65.5 22q-31 14 -51 33l-82 -520h-275l318 2011l274 35l-116 -737q11 26 26 53q13 23 32.5 50.5t45.5 53.5q29 30 57 49t55.5 29.5t56 14.5t58.5 4q260 0 260 -379z M766 668q0 37 -4.5 71t-17 59.5t-33.5 40.5t-54 15q-18 0 -34.5 -4t-33.5 -14.5t-36 -29t-43 -46.5q-19 -24 -36 -53t-30.5 -60t-23.5 -62t-14 -59l-48 -293q11 -12 29 -22q15 -8 38.5 -14.5t55.5 -6.5q69 0 115 28t78 73q40 56 66 153t26 224z"/>
<glyph glyph-name="dotlessi" unicode="ı" horiz-adv-x="535" d="M322 0h-275l170 1073h275z"/>
<glyph glyph-name="circumflex" unicode="ˆ" horiz-adv-x="1024" d="M926 1194l-226 188l-299 -188l-75 119l407 307l297 -307z"/>
<glyph glyph-name="ring" unicode="˚" horiz-adv-x="993" d="M913 1419q0 -63 -20 -113.5t-56 -85.5t-84.5 -54t-105.5 -19q-48 0 -89.5 15t-71.5 44t-47 71.5t-17 96.5q0 58 20.5 106.5t56.5 83.5t85 54.5t106 19.5q51 0 92.5 -15.5t70.5 -44t44.5 -69t15.5 -90.5zM780 1407q0 30 -8.5 51t-23 33.5t-33 18.5t-39.5 6 q-27 0 -49.5 -10.5t-38 -29t-24.5 -43.5t-9 -53q0 -31 8 -52t22 -34.5t32.5 -19.5t39.5 -6q28 0 51 10.5t39 29.5t24.5 44.5t8.5 54.5z"/>
<glyph glyph-name="tilde" unicode="˜" horiz-adv-x="993" d="M1102 1452q-26 -60 -62 -107q-15 -20 -34 -39t-41.5 -34t-48 -24t-54.5 -9t-52 6.5t-52 20.5l-47 22q-26 13 -43 17t-31 4q-26 0 -46 -11t-34 -25q-17 -16 -29 -36l-96 70q29 57 67 103q16 19 35 37.5t41 33t46.5 23.5t50.5 9q28 0 49.5 -5.5t52.5 -20.5l47 -23 q44 -20 72 -20q26 0 43.5 11t29.5 25q13 16 23 36l113 -64v0z"/>
<glyph glyph-name="Ring" unicode="" horiz-adv-x="1182" d="M1022 1794q0 -63 -20.5 -113.5t-56 -85.5t-84 -54t-105.5 -19q-48 0 -89.5 15t-72 44t-47.5 71.5t-17 96.5q0 58 20.5 106.5t56.5 83.5t85 54.5t107 19.5q51 0 92.5 -15.5t70.5 -44t44.5 -69t15.5 -90.5zM889 1782q0 30 -8.5 50.5t-23 33.5t-33.5 18.5t-40 5.5 q-27 0 -49 -10.5t-37.5 -28.5t-24.5 -43t-9 -53q0 -31 8 -52.5t22 -35t32.5 -19.5t39.5 -6q28 0 51 11t39 30t24.5 44.5t8.5 54.5z"/>
<glyph glyph-name="Circumflex" unicode="" horiz-adv-x="938" d="M899 1532l-225 188l-299 -188l-76 119l408 307l297 -307z"/>
<glyph glyph-name="Tilde" unicode="" horiz-adv-x="1317" d="M1204 1790q-26 -60 -62 -107q-15 -20 -34 -39t-41.5 -34t-48 -24t-53.5 -9q-29 0 -52.5 6.5t-52.5 20.5l-47 22q-26 12 -43 16.5t-31 4.5q-26 0 -45.5 -11t-33.5 -25q-17 -16 -29 -36l-96 70q30 57 67 103q16 19 35 37.5t40.5 33t46 23.5t50.5 9q28 0 50 -5.5t53 -20.5 l47 -23q43 -20 71 -20q26 0 44 10.5t30 24.5q14 16 23 36l112 -63v0z"/>
<glyph glyph-name="Dieresiscondensed" unicode="" horiz-adv-x="541" d="M799 1733q0 -32 -11 -58.5t-30.5 -45.5t-45.5 -29.5t-57 -10.5q-51 0 -83.5 30.5t-32.5 86.5q0 32 11 58.5t30 45t45 29t57 10.5q51 0 84 -30.5t33 -85.5zM371 1733q0 -32 -11 -58.5t-30.5 -45.5t-45.5 -29.5t-57 -10.5q-51 0 -83.5 30.5t-32.5 86.5q0 32 11 58.5t30 45 t45 29t57 10.5q51 0 84 -30.5t33 -85.5z"/>
<glyph glyph-name="Circumflexcondensed" unicode="" horiz-adv-x="541" d="M686 1532l-225 188l-299 -188l-76 119l408 307l297 -307z"/>
<glyph glyph-name="Acutecondensed" unicode="" horiz-adv-x="541" d="M276 1532l-79 131l381 276l104 -176z"/>
<glyph glyph-name="Gravecondensed" unicode="" horiz-adv-x="541" d="M604 1532l-405 231l106 176l381 -276z"/>
<glyph glyph-name="dieresiscondensed" unicode="" horiz-adv-x="535" d="M739 1395q0 -32 -11 -58.5t-30 -45.5t-45 -29.5t-57 -10.5q-51 0 -84 30.5t-33 86.5q0 32 11 58.5t30.5 45t45.5 29t57 10.5q51 0 83.5 -30.5t32.5 -85.5zM311 1395q0 -32 -11 -58.5t-30 -45.5t-45 -29.5t-57 -10.5q-51 0 -84 30.5t-33 86.5q0 32 11 58.5t30.5 45 t45.5 29t57 10.5q51 0 83.5 -30.5t32.5 -85.5z"/>
<glyph glyph-name="circumflexcondensed" unicode="" horiz-adv-x="535" d="M635 1194l-225 188l-299 -188l-76 119l407 307l297 -307z"/>
<glyph glyph-name="acutecondensed" unicode="" horiz-adv-x="535" d="M199 1194l-80 131l381 277l104 -177z"/>
<glyph glyph-name="gravecondensed" unicode="" horiz-adv-x="535" d="M541 1194l-406 231l107 177l381 -277z"/>
<glyph glyph-name="Acute" unicode="" horiz-adv-x="938" d="M526 1532l-80 131l381 276l105 -176z"/>
<glyph glyph-name="Dieresis" unicode="" horiz-adv-x="1159" d="M1106 1733q0 -32 -11 -58.5t-30 -45.5t-45.5 -29.5t-56.5 -10.5q-51 0 -84 30.5t-33 86.5q0 32 11 58.5t30 45t45 29t57 10.5q51 0 84 -30.5t33 -85.5zM678 1733q0 -32 -11 -58.5t-30 -45.5t-45.5 -29.5t-56.5 -10.5q-51 0 -84 30.5t-33 86.5q0 32 11 58.5t30 45t45 29 t57 10.5q51 0 84 -30.5t33 -85.5z"/>
<glyph glyph-name="Grave" unicode="" horiz-adv-x="938" d="M823 1532l-405 231l106 176l381 -276z"/>
</font>
</defs>
</svg>
