<?xml version="1.0" encoding="utf-8"?>
<!-- Generator: Adobe Illustrator 16.0.3, SVG Export Plug-In . SVG Version: 6.00 Build 0)  -->
<!DOCTYPE svg PUBLIC "-//W3C//DTD SVG 1.1//EN" "http://www.w3.org/Graphics/SVG/1.1/DTD/svg11.dtd">
<svg version="1.1" id="Layer_1" xmlns="http://www.w3.org/2000/svg" xmlns:xlink="http://www.w3.org/1999/xlink" x="0px" y="0px"
	 width="50px" height="50px" viewBox="0 0 50 50" enable-background="new 0 0 50 50" xml:space="preserve">
<rect opacity="0" width="50" height="50"/>
<g>
	<path fill="#FFFFFF" d="M47.58,43.35V50H2.254v-6.651c0-3.141,2.707-7.007,6.014-8.578l7.359-3.496l5.108,10.646l2.616-7.094
		c0.516,0.1,1.027,0.229,1.565,0.229s1.048-0.129,1.564-0.229l2.482,6.744l5.01-10.414l7.598,3.613
		C44.873,36.341,47.58,40.207,47.58,43.35z M8.939,20.042v-4.803c0-0.815,0.424-1.528,1.064-1.939C10.861,5.826,17.219,0,24.92,0
		c7.7,0,14.059,5.826,14.919,13.3c0.639,0.411,1.063,1.125,1.063,1.939v4.803c0,1.275-1.031,2.31-2.31,2.31
		c-1.275,0-2.309-1.035-2.309-2.31v-1.009c-1.25,6.288-5.854,12.125-11.362,12.125c-5.508,0-10.111-5.838-11.361-12.125v1.009
		c0,1.035-0.687,1.901-1.625,2.194c0.919,3.128,2.958,5.832,5.775,7.604c0.52-0.17,1.176-0.139,1.813,0.192
		c1.022,0.531,1.544,1.566,1.157,2.306c-0.385,0.738-1.526,0.904-2.555,0.37c-0.75-0.391-1.227-1.049-1.277-1.664
		c-3.226-2.062-5.514-5.219-6.458-8.863C9.542,21.841,8.939,21.015,8.939,20.042z M11.577,12.761
		c0.069,0.005,0.136,0.006,0.202,0.031c0.167,0.063,0.289,0.181,0.372,0.322c0.501,0.212,0.9,0.602,1.146,1.083
		c0.682-6.385,5.617-9.764,11.62-9.764c6.004,0,10.939,3.378,11.62,9.764c0.339-0.663,0.981-1.138,1.751-1.236
		C37.289,6.468,31.683,1.477,24.917,1.477C18.221,1.478,12.659,6.368,11.577,12.761z"/>
</g>
</svg>
