<?xml version="1.0" encoding="utf-8"?>
<!-- Generator: Adobe Illustrator 16.0.3, SVG Export Plug-In . SVG Version: 6.00 Build 0)  -->
<!DOCTYPE svg PUBLIC "-//W3C//DTD SVG 1.1//EN" "http://www.w3.org/Graphics/SVG/1.1/DTD/svg11.dtd">
<svg version="1.1" id="Layer_1" xmlns="http://www.w3.org/2000/svg" xmlns:xlink="http://www.w3.org/1999/xlink" x="0px" y="0px"
	 width="50px" height="50px" viewBox="0 0 50 50" enable-background="new 0 0 50 50" xml:space="preserve">
<rect opacity="0" width="50" height="50"/>
<g>
	<path fill="#FFFFFF" d="M25,24.453c5.559,0,10.066-5.474,10.066-12.227C35.066,5.474,33.586,0,25,0
		c-8.586,0-10.066,5.474-10.066,12.227C14.934,18.979,19.44,24.453,25,24.453z"/>
	<path fill="#FFFFFF" d="M5.987,43.122C5.985,42.71,5.983,43.006,5.987,43.122L5.987,43.122z"/>
	<path fill="#FFFFFF" d="M44.012,43.443C44.018,43.33,44.014,42.662,44.012,43.443L44.012,43.443z"/>
	<path fill="#FFFFFF" d="M43.99,42.628c-0.186-11.763-1.723-15.114-13.479-17.236c0,0-1.654,2.108-5.512,2.108
		s-5.512-2.108-5.512-2.108C7.86,27.49,6.23,30.792,6.016,42.246c-0.018,0.936-0.026,0.984-0.029,0.876
		c0.001,0.203,0.001,0.579,0.001,1.235C5.988,44.357,8.787,50,25,50c16.212,0,19.012-5.643,19.012-5.643c0-0.422,0-0.715,0-0.914
		C44.009,43.511,44.002,43.381,43.99,42.628z"/>
</g>
</svg>
